SplineFontDB: 3.2
FontName: Untitled1
FullName: Untitled1
FamilyName: Untitled1
Weight: Regular
Copyright: Copyright (c) 2025, Bastien
UComments: "2025-7-28: Created with FontForge (http://fontforge.org)"
Version: 001.000
ItalicAngle: 0
UnderlinePosition: -100
UnderlineWidth: 50
Ascent: 800
Descent: 200
InvalidEm: 0
LayerCount: 2
Layer: 0 0 "Arri+AOgA-re" 1
Layer: 1 0 "Avant" 0
XUID: [1021 567 1379170130 455865]
OS2Version: 0
OS2_WeightWidthSlopeOnly: 0
OS2_UseTypoMetrics: 1
CreationTime: 1753720594
ModificationTime: 1753720595
OS2TypoAscent: 0
OS2TypoAOffset: 1
OS2TypoDescent: 0
OS2TypoDOffset: 1
OS2TypoLinegap: 0
OS2WinAscent: 0
OS2WinAOffset: 1
OS2WinDescent: 0
OS2WinDOffset: 1
HheadAscent: 0
HheadAOffset: 1
HheadDescent: 0
HheadDOffset: 1
OS2Vendor: 'PfEd'
DEI: 91125
Encoding: ISO8859-1
UnicodeInterp: none
NameList: AGL For New Fonts
DisplaySize: -48
AntiAlias: 1
FitToEm: 0
BeginChars: 256 93

StartChar: space
Encoding: 32 32 0
Width: 599
Flags: HW
LayerCount: 2
Fore
SplineSet
0.0009765625 799.999023438 m 1
 0.0009765625 798.911132812 l 1
 598.680664062 798.911132812 l 1
 598.680664062 799.999023438 l 1
 0.0009765625 799.999023438 l 1
0.0009765625 -198.911132812 m 1
 0.0009765625 -199.999023438 l 1
 598.680664062 -199.999023438 l 1
 598.680664062 -198.911132812 l 1
 0.0009765625 -198.911132812 l 1
EndSplineSet
EndChar

StartChar: exclam
Encoding: 33 33 1
Width: 599
Flags: HW
LayerCount: 2
Fore
SplineSet
259.717773438 701.90625 m 1
 338.961914062 701.90625 l 1
 331.038085938 244.3984375 l 1
 267.641601562 244.3984375 l 1
 259.717773438 701.90625 l 1
348.868164062 68.583984375 m 0
 348.868164062 55.4482421875 343.6484375 42.8515625 334.360351562 33.5634765625 c 0
 325.072265625 24.275390625 312.475585938 19.056640625 299.33984375 19.056640625 c 0
 286.204101562 19.056640625 273.607421875 24.275390625 264.319335938 33.5634765625 c 0
 255.03125 42.8515625 249.811523438 55.4482421875 249.811523438 68.583984375 c 0
 249.811523438 81.720703125 255.03125 94.3173828125 264.319335938 103.60546875 c 0
 273.607421875 112.893554688 286.204101562 118.112304688 299.33984375 118.112304688 c 0
 312.475585938 118.112304688 325.072265625 112.893554688 334.360351562 103.60546875 c 0
 343.6484375 94.3173828125 348.868164062 81.720703125 348.868164062 68.583984375 c 0
0.0009765625 799.999023438 m 1
 0.0009765625 798.911132812 l 1
 598.680664062 798.911132812 l 1
 598.680664062 799.999023438 l 1
 0.0009765625 799.999023438 l 1
0.0009765625 -198.911132812 m 1
 0.0009765625 -199.999023438 l 1
 598.680664062 -199.999023438 l 1
 598.680664062 -198.911132812 l 1
 0.0009765625 -198.911132812 l 1
EndSplineSet
EndChar

StartChar: quotedbl
Encoding: 34 34 2
Width: 583
Flags: HW
LayerCount: 2
Fore
SplineSet
69.669921875 773.717773438 m 1
 146.873046875 773.717773438 l 1
 146.873046875 583.641601562 l 1
 69.669921875 583.641601562 l 1
 69.669921875 773.717773438 l 1
513.592773438 583.641601562 m 1
 436.388671875 583.641601562 l 1
 436.388671875 773.717773438 l 1
 513.592773438 773.717773438 l 1
 513.592773438 583.641601562 l 1
0.0009765625 774.249023438 m 1
 0.0009765625 773.188476562 l 1
 583.262695312 773.188476562 l 1
 583.262695312 774.249023438 l 1
 0.0009765625 774.249023438 l 1
0.0009765625 -198.940429688 m 1
 0.0009765625 -200 l 1
 583.262695312 -200 l 1
 583.262695312 -198.940429688 l 1
 0.0009765625 -198.940429688 l 1
EndSplineSet
EndChar

StartChar: numbersign
Encoding: 35 35 3
Width: 599
Flags: HW
LayerCount: 2
Fore
SplineSet
72.080078125 463.883789062 m 1
 72.080078125 526.315429688 l 1
 526.599609375 526.315429688 l 1
 526.599609375 463.883789062 l 1
 72.080078125 463.883789062 l 1
72.080078125 210.25390625 m 1
 72.080078125 272.686523438 l 1
 526.599609375 272.686523438 l 1
 526.599609375 210.25390625 l 1
 72.080078125 210.25390625 l 1
72.080078125 19.056640625 m 1
 209.700195312 701.90625 l 1
 280.538085938 701.90625 l 1
 142.918945312 19.056640625 l 1
 72.080078125 19.056640625 l 1
318.141601562 19.056640625 m 1
 455.760742188 701.90625 l 1
 526.599609375 701.90625 l 1
 388.979492188 19.056640625 l 1
 318.141601562 19.056640625 l 1
0.0009765625 799.999023438 m 1
 0.0009765625 798.911132812 l 1
 598.680664062 798.911132812 l 1
 598.680664062 799.999023438 l 1
 0.0009765625 799.999023438 l 1
0.0009765625 -198.911132812 m 1
 0.0009765625 -199.999023438 l 1
 598.680664062 -199.999023438 l 1
 598.680664062 -198.911132812 l 1
 0.0009765625 -198.911132812 l 1
EndSplineSet
EndChar

StartChar: dollar
Encoding: 36 36 4
Width: 597
Flags: HW
LayerCount: 2
Fore
SplineSet
304.392578125 706.969726562 m 0
 394.389648438 706.969726562 479.65234375 666.6484375 536.750976562 597.084960938 c 1
 496.741210938 549.403320312 l 1
 451.024414062 609.466796875 379.875 644.725585938 304.392578125 644.725585938 c 0
 216.314453125 644.725585938 150.869140625 606.388671875 150.869140625 525.120117188 c 0
 150.869140625 461.17578125 184.23828125 418.775390625 246.627929688 405.513671875 c 2
 363.189453125 380.737304688 l 2
 464.1328125 359.280273438 525.012695312 297.731445312 525.012695312 196.356445312 c 0
 525.012695312 71.6748046875 426.637695312 10.6162109375 292.483398438 10.6162109375 c 0
 205.779296875 10.6162109375 124.099609375 51.298828125 71.86328125 120.500976562 c 1
 111.873046875 168.181640625 l 1
 152.641601562 108.533203125 220.233398438 72.859375 292.483398438 72.859375 c 0
 381.19921875 72.859375 446.006835938 113.732421875 446.006835938 196.356445312 c 0
 446.006835938 261.809570312 413.6640625 306.373046875 350.248046875 319.853515625 c 2
 233.686523438 344.629882812 l 2
 133.69140625 365.884765625 71.86328125 425.1640625 71.86328125 525.120117188 c 0
 71.86328125 648.448242188 170.875 706.969726562 304.392578125 706.969726562 c 0
269.080078125 773.104492188 m 1
 339.705078125 773.104492188 l 1
 327.795898438 -55.5185546875 l 1
 257.170898438 -55.5185546875 l 1
 269.080078125 773.104492188 l 1
0.0009765625 796.98828125 m 1
 0.0009765625 795.904296875 l 1
 596.876953125 795.904296875 l 1
 596.876953125 796.98828125 l 1
 0.0009765625 796.98828125 l 1
0.0009765625 -198.916015625 m 1
 0.0009765625 -200.000976562 l 1
 596.876953125 -200.000976562 l 1
 596.876953125 -198.916015625 l 1
 0.0009765625 -198.916015625 l 1
EndSplineSet
EndChar

StartChar: percent
Encoding: 37 37 5
Width: 635
Flags: HW
LayerCount: 2
Fore
SplineSet
199.311523438 137.23046875 m 1
 148.868164062 174.017578125 l 1
 447.6640625 583.731445312 l 1
 498.107421875 546.944335938 l 1
 199.311523438 137.23046875 l 1
161.478515625 709.709960938 m 1
 257.783203125 709.709960938 310.876953125 639.716796875 310.876953125 538.998046875 c 0
 310.876953125 438.279296875 257.783203125 368.28515625 161.478515625 368.28515625 c 0
 65.173828125 368.28515625 12.0810546875 438.279296875 12.0810546875 538.998046875 c 0
 12.0810546875 639.716796875 65.173828125 709.709960938 161.478515625 709.709960938 c 1
 161.478515625 653.521484375 l 1
 104.411132812 653.521484375 83.4013671875 602.966796875 83.4013671875 538.998046875 c 0
 83.4013671875 475.028320312 104.411132812 424.473632812 161.478515625 424.473632812 c 0
 218.546875 424.473632812 239.556640625 475.028320312 239.556640625 538.998046875 c 0
 239.556640625 602.966796875 218.546875 653.521484375 161.478515625 653.521484375 c 1
 161.478515625 709.709960938 l 1
485.49609375 11.251953125 m 1
 389.19140625 11.251953125 336.098632812 81.24609375 336.098632812 181.96484375 c 0
 336.098632812 282.68359375 389.19140625 352.676757812 485.49609375 352.676757812 c 0
 581.80078125 352.676757812 634.89453125 282.68359375 634.89453125 181.96484375 c 0
 634.89453125 81.24609375 581.80078125 11.251953125 485.49609375 11.251953125 c 1
 485.49609375 67.4404296875 l 1
 542.564453125 67.4404296875 563.57421875 117.995117188 563.57421875 181.96484375 c 0
 563.57421875 245.93359375 542.564453125 296.48828125 485.49609375 296.48828125 c 0
 428.428710938 296.48828125 407.41796875 245.93359375 407.41796875 181.96484375 c 0
 407.41796875 117.995117188 428.428710938 67.4404296875 485.49609375 67.4404296875 c 1
 485.49609375 11.251953125 l 1
24.1474609375 799.999023438 m 1
 24.1474609375 798.911132812 l 1
 622.827148438 798.911132812 l 1
 622.827148438 799.999023438 l 1
 24.1474609375 799.999023438 l 1
24.1474609375 -198.911132812 m 1
 24.1474609375 -199.999023438 l 1
 622.827148438 -199.999023438 l 1
 622.827148438 -198.911132812 l 1
 24.1474609375 -198.911132812 l 1
EndSplineSet
EndChar

StartChar: ampersand
Encoding: 38 38 6
Width: 599
Flags: HW
LayerCount: 2
Fore
SplineSet
457.701171875 639.474609375 m 1
 90.1787109375 639.474609375 l 1
 90.1787109375 701.90625 l 1
 457.701171875 701.90625 l 1
 457.701171875 639.474609375 l 1
90.1787109375 639.474609375 m 1
 169.423828125 639.474609375 l 1
 351.694335938 462.904296875 l 1
 272.44921875 462.904296875 l 1
 90.1787109375 639.474609375 l 1
550.33984375 186.775390625 m 1
 504.819335938 80.3095703125 400.188476562 11.251953125 284.399414062 11.251953125 c 0
 149.178710938 11.251953125 72.080078125 106.64453125 72.080078125 246.672851562 c 0
 72.080078125 376.278320312 146.15625 462.904296875 272.44921875 462.904296875 c 2
 351.694335938 462.904296875 l 1
 351.694335938 409.837890625 l 1
 272.44921875 409.837890625 l 2
 188.08203125 409.837890625 151.325195312 339.328125 151.325195312 246.672851562 c 0
 151.325195312 147.700195312 193.405273438 73.6845703125 284.399414062 73.6845703125 c 0
 382.130859375 73.6845703125 469.369140625 134.966796875 502.514648438 226.90625 c 1
 550.33984375 186.775390625 l 1
0.0009765625 799.999023438 m 1
 0.0009765625 798.911132812 l 1
 598.680664062 798.911132812 l 1
 598.680664062 799.999023438 l 1
 0.0009765625 799.999023438 l 1
0.0009765625 -198.911132812 m 1
 0.0009765625 -199.999023438 l 1
 598.680664062 -199.999023438 l 1
 598.680664062 -198.911132812 l 1
 0.0009765625 -198.911132812 l 1
EndSplineSet
EndChar

StartChar: quotesingle
Encoding: 39 39 7
Width: 599
Flags: HW
LayerCount: 2
Fore
SplineSet
259.717773438 799.456054688 m 1
 338.961914062 799.456054688 l 1
 331.038085938 604.356445312 l 1
 267.641601562 604.356445312 l 1
 259.717773438 799.456054688 l 1
0.0009765625 799.999023438 m 1
 0.0009765625 798.911132812 l 1
 598.680664062 798.911132812 l 1
 598.680664062 799.999023438 l 1
 0.0009765625 799.999023438 l 1
0.0009765625 -198.911132812 m 1
 0.0009765625 -199.999023438 l 1
 598.680664062 -199.999023438 l 1
 598.680664062 -198.911132812 l 1
 0.0009765625 -198.911132812 l 1
EndSplineSet
EndChar

StartChar: parenleft
Encoding: 40 40 8
Width: 583
Flags: HW
LayerCount: 2
Fore
SplineSet
408.069335938 773.717773438 m 1
 437.984375 719.682617188 l 1
 305.043945312 642.202148438 223.284179688 499.918945312 223.284179688 346.047851562 c 0
 223.284179688 192.17578125 305.043945312 49.8935546875 437.984375 -27.5869140625 c 1
 408.069335938 -81.623046875 l 1
 247.294921875 0.3564453125 146.080078125 165.578125 146.080078125 346.047851562 c 0
 146.080078125 526.516601562 247.294921875 691.73828125 408.069335938 773.717773438 c 1
0.0009765625 774.249023438 m 1
 0.0009765625 773.188476562 l 1
 583.262695312 773.188476562 l 1
 583.262695312 774.249023438 l 1
 0.0009765625 774.249023438 l 1
0.0009765625 -198.940429688 m 1
 0.0009765625 -200 l 1
 583.262695312 -200 l 1
 583.262695312 -198.940429688 l 1
 0.0009765625 -198.940429688 l 1
EndSplineSet
EndChar

StartChar: parenright
Encoding: 41 41 9
Width: 584
Flags: HW
LayerCount: 2
Fore
SplineSet
146.192382812 720.502929688 m 1
 175.423828125 775.004882812 l 1
 336.411132812 692.916992188 437.759765625 527.4765625 437.759765625 346.76953125 c 0
 437.759765625 166.061523438 336.411132812 0.62109375 175.423828125 -81.4658203125 c 1
 146.192382812 -26.96484375 l 1
 278.90234375 50.736328125 360.453125 192.985351562 360.453125 346.76953125 c 0
 360.453125 500.552734375 278.90234375 642.801757812 146.192382812 720.502929688 c 1
0.0009765625 775.536132812 m 1
 0.0009765625 774.474609375 l 1
 584.034179688 774.474609375 l 1
 584.034179688 775.536132812 l 1
 0.0009765625 775.536132812 l 1
0.0009765625 -198.939453125 m 1
 0.0009765625 -200 l 1
 584.034179688 -200 l 1
 584.034179688 -198.939453125 l 1
 0.0009765625 -198.939453125 l 1
EndSplineSet
EndChar

StartChar: asterisk
Encoding: 42 42 10
Width: 593
Flags: HW
LayerCount: 2
Fore
SplineSet
286.90234375 576.809570312 m 1
 100.619140625 629.08203125 l 1
 124.883789062 703.759765625 l 1
 306.313476562 636.551757812 l 1
 286.90234375 576.809570312 l 1
322.017578125 588.219726562 m 1
 214.740234375 427.205078125 l 1
 151.21484375 473.358398438 l 1
 271.198242188 625.141601562 l 1
 322.017578125 588.219726562 l 1
322.017578125 625.141601562 m 1
 442 473.358398438 l 1
 378.474609375 427.205078125 l 1
 271.198242188 588.219726562 l 1
 322.017578125 625.141601562 l 1
286.90234375 636.551757812 m 1
 468.33203125 703.758789062 l 1
 492.596679688 629.08203125 l 1
 306.313476562 576.809570312 l 1
 286.90234375 636.551757812 l 1
265.19921875 606.680664062 m 1
 257.346679688 800 l 1
 335.868164062 800 l 1
 328.016601562 606.680664062 l 1
 265.19921875 606.680664062 l 1
0.0009765625 790.872070312 m 1
 0.0009765625 789.793945312 l 1
 593.216796875 789.793945312 l 1
 593.216796875 790.872070312 l 1
 0.0009765625 790.872070312 l 1
0.0009765625 -198.921875 m 1
 0.0009765625 -200 l 1
 593.216796875 -200 l 1
 593.216796875 -198.921875 l 1
 0.0009765625 -198.921875 l 1
EndSplineSet
EndChar

StartChar: plus
Encoding: 43 43 11
Width: 599
Flags: HW
LayerCount: 2
Fore
SplineSet
75.2431640625 260.9765625 m 1
 75.2431640625 323.408203125 l 1
 523.436523438 323.408203125 l 1
 523.436523438 260.9765625 l 1
 75.2431640625 260.9765625 l 1
259.717773438 68.095703125 m 1
 259.717773438 516.2890625 l 1
 338.961914062 516.2890625 l 1
 338.961914062 68.095703125 l 1
 259.717773438 68.095703125 l 1
0.0009765625 799.999023438 m 1
 0.0009765625 798.911132812 l 1
 598.680664062 798.911132812 l 1
 598.680664062 799.999023438 l 1
 0.0009765625 799.999023438 l 1
0.0009765625 -198.911132812 m 1
 0.0009765625 -199.999023438 l 1
 598.680664062 -199.999023438 l 1
 598.680664062 -198.911132812 l 1
 0.0009765625 -198.911132812 l 1
EndSplineSet
EndChar

StartChar: comma
Encoding: 44 44 12
Width: 599
Flags: HW
LayerCount: 2
Fore
SplineSet
348.868164062 60.7802734375 m 0
 348.868164062 47.6435546875 343.6484375 35.046875 334.360351562 25.759765625 c 0
 325.072265625 16.4716796875 312.475585938 11.251953125 299.33984375 11.251953125 c 0
 286.204101562 11.251953125 273.607421875 16.4716796875 264.319335938 25.759765625 c 0
 255.03125 35.046875 249.811523438 47.6435546875 249.811523438 60.7802734375 c 0
 249.811523438 73.916015625 255.03125 86.5126953125 264.319335938 95.80078125 c 0
 273.607421875 105.088867188 286.204101562 110.307617188 299.33984375 110.307617188 c 0
 312.475585938 110.307617188 325.072265625 105.088867188 334.360351562 95.80078125 c 0
 343.6484375 86.5126953125 348.868164062 73.916015625 348.868164062 60.7802734375 c 0
269.623046875 60.7802734375 m 1
 348.868164062 60.7802734375 l 1
 348.868164062 -78.4931640625 l 1
 285.471679688 -78.4931640625 l 1
 269.623046875 60.7802734375 l 1
0.0009765625 799.999023438 m 1
 0.0009765625 798.911132812 l 1
 598.680664062 798.911132812 l 1
 598.680664062 799.999023438 l 1
 0.0009765625 799.999023438 l 1
0.0009765625 -198.911132812 m 1
 0.0009765625 -199.999023438 l 1
 598.680664062 -199.999023438 l 1
 598.680664062 -198.911132812 l 1
 0.0009765625 -198.911132812 l 1
EndSplineSet
EndChar

StartChar: hyphen
Encoding: 45 45 13
Width: 599
Flags: HW
LayerCount: 2
Fore
SplineSet
75.2431640625 260.9765625 m 1
 75.2431640625 323.408203125 l 1
 523.436523438 323.408203125 l 1
 523.436523438 260.9765625 l 1
 75.2431640625 260.9765625 l 1
0.0009765625 799.999023438 m 1
 0.0009765625 798.911132812 l 1
 598.680664062 798.911132812 l 1
 598.680664062 799.999023438 l 1
 0.0009765625 799.999023438 l 1
0.0009765625 -198.911132812 m 1
 0.0009765625 -199.999023438 l 1
 598.680664062 -199.999023438 l 1
 598.680664062 -198.911132812 l 1
 0.0009765625 -198.911132812 l 1
EndSplineSet
EndChar

StartChar: period
Encoding: 46 46 14
Width: 599
Flags: HW
LayerCount: 2
Fore
SplineSet
348.868164062 60.7802734375 m 0
 348.868164062 47.6435546875 343.6484375 35.046875 334.360351562 25.759765625 c 0
 325.072265625 16.4716796875 312.475585938 11.251953125 299.33984375 11.251953125 c 0
 286.204101562 11.251953125 273.607421875 16.4716796875 264.319335938 25.759765625 c 0
 255.03125 35.046875 249.811523438 47.6435546875 249.811523438 60.7802734375 c 0
 249.811523438 73.916015625 255.03125 86.5126953125 264.319335938 95.80078125 c 0
 273.607421875 105.088867188 286.204101562 110.307617188 299.33984375 110.307617188 c 0
 312.475585938 110.307617188 325.072265625 105.088867188 334.360351562 95.80078125 c 0
 343.6484375 86.5126953125 348.868164062 73.916015625 348.868164062 60.7802734375 c 0
0.0009765625 799.999023438 m 1
 0.0009765625 798.911132812 l 1
 598.680664062 798.911132812 l 1
 598.680664062 799.999023438 l 1
 0.0009765625 799.999023438 l 1
0.0009765625 -198.911132812 m 1
 0.0009765625 -199.999023438 l 1
 598.680664062 -199.999023438 l 1
 598.680664062 -198.911132812 l 1
 0.0009765625 -198.911132812 l 1
EndSplineSet
EndChar

StartChar: slash
Encoding: 47 47 15
Width: 599
Flags: HW
LayerCount: 2
Fore
SplineSet
447.354492188 709.709960938 m 1
 526.599609375 709.709960938 l 1
 151.325195312 11.251953125 l 1
 72.080078125 11.251953125 l 1
 447.354492188 709.709960938 l 1
0.0009765625 799.999023438 m 1
 0.0009765625 798.911132812 l 1
 598.680664062 798.911132812 l 1
 598.680664062 799.999023438 l 1
 0.0009765625 799.999023438 l 1
0.0009765625 -198.911132812 m 1
 0.0009765625 -199.999023438 l 1
 598.680664062 -199.999023438 l 1
 598.680664062 -198.911132812 l 1
 0.0009765625 -198.911132812 l 1
EndSplineSet
EndChar

StartChar: zero
Encoding: 48 48 16
Width: 599
Flags: HW
LayerCount: 2
Fore
SplineSet
299.33984375 709.709960938 m 1
 470.294921875 709.709960938 526.599609375 553.935546875 526.599609375 360.481445312 c 0
 526.599609375 167.02734375 470.294921875 11.251953125 299.33984375 11.251953125 c 0
 128.384765625 11.251953125 72.080078125 167.02734375 72.080078125 360.481445312 c 0
 72.080078125 553.935546875 128.384765625 709.709960938 299.33984375 709.709960938 c 1
 299.33984375 647.278320312 l 1
 167.5546875 647.278320312 151.325195312 513.733398438 151.325195312 360.481445312 c 0
 151.325195312 207.228515625 167.5546875 73.6845703125 299.33984375 73.6845703125 c 0
 431.125 73.6845703125 447.354492188 207.228515625 447.354492188 360.481445312 c 0
 447.354492188 513.733398438 431.125 647.278320312 299.33984375 647.278320312 c 1
 299.33984375 709.709960938 l 1
0.0009765625 799.999023438 m 1
 0.0009765625 798.911132812 l 1
 598.680664062 798.911132812 l 1
 598.680664062 799.999023438 l 1
 0.0009765625 799.999023438 l 1
0.0009765625 -198.911132812 m 1
 0.0009765625 -199.999023438 l 1
 598.680664062 -199.999023438 l 1
 598.680664062 -198.911132812 l 1
 0.0009765625 -198.911132812 l 1
EndSplineSet
EndChar

StartChar: one
Encoding: 49 49 17
Width: 599
Flags: HW
LayerCount: 2
Fore
SplineSet
280.033203125 701.90625 m 1
 359.278320312 701.90625 l 1
 359.278320312 19.056640625 l 1
 280.033203125 19.056640625 l 1
 280.033203125 701.90625 l 1
78.2333984375 81.48828125 m 1
 538.373046875 81.48828125 l 1
 538.373046875 19.056640625 l 1
 78.2333984375 19.056640625 l 1
 78.2333984375 81.48828125 l 1
78.2333984375 572.163085938 m 1
 280.033203125 701.90625 l 1
 280.033203125 627.684570312 l 1
 78.2333984375 497.94140625 l 1
 78.2333984375 572.163085938 l 1
0.0009765625 799.999023438 m 1
 0.0009765625 798.911132812 l 1
 598.680664062 798.911132812 l 1
 598.680664062 799.999023438 l 1
 0.0009765625 799.999023438 l 1
0.0009765625 -198.911132812 m 1
 0.0009765625 -199.999023438 l 1
 598.680664062 -199.999023438 l 1
 598.680664062 -198.911132812 l 1
 0.0009765625 -198.911132812 l 1
EndSplineSet
EndChar

StartChar: two
Encoding: 50 50 18
Width: 599
Flags: HW
LayerCount: 2
Fore
SplineSet
64.140625 599.493164062 m 1
 111.056640625 668.443359375 189.051757812 709.709960938 272.44921875 709.709960938 c 0
 402.71875 709.709960938 490.831054688 636.939453125 490.831054688 510.708984375 c 0
 490.831054688 431.40625 446.764648438 360.997070312 389.357421875 305.961914062 c 0
 389.334960938 305.939453125 112.727539062 40.759765625 112.705078125 40.73828125 c 2
 64.140625 81.48828125 l 1
 64.1640625 81.509765625 340.770507812 346.690429688 340.793945312 346.711914062 c 0
 385.575195312 389.643554688 411.5859375 448.686523438 411.5859375 510.708984375 c 0
 411.5859375 595.0390625 357.317382812 647.278320312 272.44921875 647.278320312 c 0
 203.45703125 647.278320312 139.560546875 610.953125 104.271484375 551.66796875 c 1
 64.140625 599.493164062 l 1
64.140625 19.056640625 m 1
 64.140625 81.48828125 l 1
 490.831054688 81.48828125 l 1
 490.831054688 19.056640625 l 1
 64.140625 19.056640625 l 1
0.0009765625 799.999023438 m 1
 0.0009765625 798.911132812 l 1
 598.680664062 798.911132812 l 1
 598.680664062 799.999023438 l 1
 0.0009765625 799.999023438 l 1
0.0009765625 -198.911132812 m 1
 0.0009765625 -199.999023438 l 1
 598.680664062 -199.999023438 l 1
 598.680664062 -198.911132812 l 1
 0.0009765625 -198.911132812 l 1
EndSplineSet
EndChar

StartChar: three
Encoding: 51 51 19
Width: 599
Flags: HW
LayerCount: 2
Fore
SplineSet
78.2333984375 639.474609375 m 1
 78.2333984375 701.90625 l 1
 490.831054688 701.90625 l 1
 490.831054688 639.474609375 l 1
 78.2333984375 639.474609375 l 1
392.45703125 639.474609375 m 1
 490.831054688 639.474609375 l 1
 278.985351562 425.352539062 l 1
 199.741210938 425.352539062 l 1
 392.45703125 639.474609375 l 1
199.741210938 425.352539062 m 1
 278.985351562 425.352539062 l 2
 422.447265625 425.352539062 526.599609375 357.9765625 526.599609375 223.913085938 c 0
 526.599609375 84.17578125 420.696289062 11.251953125 272.44921875 11.251953125 c 0
 187.419921875 11.251953125 107.619140625 52.2978515625 58.16796875 121.469726562 c 1
 98.298828125 169.294921875 l 1
 136.185546875 109.74609375 201.87109375 73.6845703125 272.44921875 73.6845703125 c 0
 375.141601562 73.6845703125 447.354492188 126.311523438 447.354492188 223.913085938 c 0
 447.354492188 324.13671875 367.422851562 372.286132812 259.174804688 372.286132812 c 2
 219.552734375 372.286132812 l 1
 199.741210938 425.352539062 l 1
0.0009765625 799.999023438 m 1
 0.0009765625 798.911132812 l 1
 598.680664062 798.911132812 l 1
 598.680664062 799.999023438 l 1
 0.0009765625 799.999023438 l 1
0.0009765625 -198.911132812 m 1
 0.0009765625 -199.999023438 l 1
 598.680664062 -199.999023438 l 1
 598.680664062 -198.911132812 l 1
 0.0009765625 -198.911132812 l 1
EndSplineSet
EndChar

StartChar: four
Encoding: 52 52 20
Width: 599
Flags: HW
LayerCount: 2
Fore
SplineSet
331.42578125 701.90625 m 1
 410.669921875 701.90625 l 1
 151.325195312 240.98046875 l 1
 72.080078125 240.98046875 l 1
 331.42578125 701.90625 l 1
72.080078125 178.548828125 m 1
 72.080078125 240.98046875 l 1
 563.505859375 240.98046875 l 1
 563.505859375 178.548828125 l 1
 72.080078125 178.548828125 l 1
364.297851562 391.208007812 m 1
 443.54296875 391.208007812 l 1
 443.54296875 19.056640625 l 1
 364.297851562 19.056640625 l 1
 364.297851562 391.208007812 l 1
0.0009765625 799.999023438 m 1
 0.0009765625 798.911132812 l 1
 598.680664062 798.911132812 l 1
 598.680664062 799.999023438 l 1
 0.0009765625 799.999023438 l 1
0.0009765625 -198.911132812 m 1
 0.0009765625 -199.999023438 l 1
 598.680664062 -199.999023438 l 1
 598.680664062 -198.911132812 l 1
 0.0009765625 -198.911132812 l 1
EndSplineSet
EndChar

StartChar: five
Encoding: 53 53 21
Width: 599
Flags: HW
LayerCount: 2
Fore
SplineSet
90.18359375 701.90625 m 1
 499.537109375 701.90625 l 1
 499.537109375 639.474609375 l 1
 90.18359375 639.474609375 l 1
 90.18359375 701.90625 l 1
90.18359375 701.90625 m 1
 169.428710938 701.90625 l 1
 169.428710938 319.506835938 l 1
 90.18359375 319.506835938 l 1
 90.18359375 701.90625 l 1
134.310546875 319.506835938 m 1
 158.810546875 413.358398438 222.952148438 462.904296875 319.94921875 462.904296875 c 0
 449.2265625 462.904296875 526.599609375 376.15625 526.599609375 244.3984375 c 0
 526.599609375 96.220703125 422.6328125 11.251953125 269.458007812 11.251953125 c 0
 192.28515625 11.251953125 119.438476562 46.896484375 72.080078125 107.830078125 c 1
 112.2109375 155.655273438 l 1
 148.091796875 104.288085938 206.80078125 73.6845703125 269.458007812 73.6845703125 c 0
 377.204101562 73.6845703125 447.354492188 138.15625 447.354492188 244.3984375 c 0
 447.354492188 341.522460938 397.61328125 409.837890625 305.317382812 409.837890625 c 0
 245.963867188 409.837890625 192.40234375 374.233398438 169.428710938 319.506835938 c 1
 134.310546875 319.506835938 l 1
0.0009765625 799.999023438 m 1
 0.0009765625 798.911132812 l 1
 598.680664062 798.911132812 l 1
 598.680664062 799.999023438 l 1
 0.0009765625 799.999023438 l 1
0.0009765625 -198.911132812 m 1
 0.0009765625 -199.999023438 l 1
 598.680664062 -199.999023438 l 1
 598.680664062 -198.911132812 l 1
 0.0009765625 -198.911132812 l 1
EndSplineSet
EndChar

StartChar: six
Encoding: 54 54 22
Width: 599
Flags: HW
LayerCount: 2
Fore
SplineSet
537.529296875 631.9765625 m 1
 497.3984375 584.151367188 l 1
 453.13671875 624.752929688 395.256835938 647.278320312 335.194335938 647.278320312 c 0
 181.840820312 647.278320312 151.325195312 496.7890625 151.325195312 319.51171875 c 2
 151.325195312 230.73828125 l 2
 151.325195312 136.133789062 206.626953125 73.6845703125 299.33984375 73.6845703125 c 0
 407.604492188 73.6845703125 484.26171875 128.208984375 484.26171875 230.73828125 c 0
 484.26171875 334.243164062 420.61328125 400.47265625 317.79296875 400.47265625 c 0
 214.97265625 400.47265625 151.325195312 334.243164062 151.325195312 230.73828125 c 1
 113.866210938 230.73828125 l 1
 113.866210938 354.135742188 199.662109375 462.904296875 317.79296875 462.904296875 c 0
 465.916015625 462.904296875 563.505859375 376.026367188 563.505859375 230.73828125 c 0
 563.505859375 86.0615234375 453.1640625 11.251953125 299.33984375 11.251953125 c 0
 140.458984375 11.251953125 72.080078125 144.709960938 72.080078125 319.51171875 c 0
 72.080078125 537.02734375 141.6015625 709.709960938 335.194335938 709.709960938 c 0
 409.930664062 709.709960938 482.016601562 682.016601562 537.529296875 631.9765625 c 1
0.0009765625 799.999023438 m 1
 0.0009765625 798.911132812 l 1
 598.680664062 798.911132812 l 1
 598.680664062 799.999023438 l 1
 0.0009765625 799.999023438 l 1
0.0009765625 -198.911132812 m 1
 0.0009765625 -199.999023438 l 1
 598.680664062 -199.999023438 l 1
 598.680664062 -198.911132812 l 1
 0.0009765625 -198.911132812 l 1
EndSplineSet
EndChar

StartChar: seven
Encoding: 55 55 23
Width: 599
Flags: HW
LayerCount: 2
Fore
SplineSet
72.080078125 639.474609375 m 1
 72.080078125 701.90625 l 1
 490.831054688 701.90625 l 1
 490.831054688 639.474609375 l 1
 72.080078125 639.474609375 l 1
411.5859375 639.474609375 m 1
 490.831054688 639.474609375 l 1
 234.381835938 19.056640625 l 1
 155.13671875 19.056640625 l 1
 411.5859375 639.474609375 l 1
0.0009765625 799.999023438 m 1
 0.0009765625 798.911132812 l 1
 598.680664062 798.911132812 l 1
 598.680664062 799.999023438 l 1
 0.0009765625 799.999023438 l 1
0.0009765625 -198.911132812 m 1
 0.0009765625 -199.999023438 l 1
 598.680664062 -199.999023438 l 1
 598.680664062 -198.911132812 l 1
 0.0009765625 -198.911132812 l 1
EndSplineSet
EndChar

StartChar: eight
Encoding: 56 56 24
Width: 599
Flags: HW
LayerCount: 2
Fore
SplineSet
299.33984375 647.278320312 m 1
 299.33984375 709.709960938 l 1
 423.45703125 709.709960938 508.71484375 642.564453125 508.71484375 523.196289062 c 0
 508.71484375 408.502929688 421.270507812 349.16796875 299.33984375 349.16796875 c 0
 177.409179688 349.16796875 89.96484375 408.502929688 89.96484375 523.196289062 c 0
 89.96484375 642.564453125 175.22265625 709.709960938 299.33984375 709.709960938 c 1
 299.33984375 647.278320312 l 1
 220.677734375 647.278320312 169.208984375 600.591796875 169.208984375 523.196289062 c 0
 169.208984375 445.799804688 220.677734375 399.114257812 299.33984375 399.114257812 c 0
 378.001953125 399.114257812 429.470703125 445.799804688 429.470703125 523.196289062 c 0
 429.470703125 600.591796875 378.001953125 647.278320312 299.33984375 647.278320312 c 1
299.33984375 349.16796875 m 1
 299.33984375 399.11328125 l 1
 431.48046875 399.11328125 526.599609375 335.478515625 526.599609375 211.42578125 c 0
 526.599609375 82.7314453125 433.650390625 11.251953125 299.33984375 11.251953125 c 0
 165.029296875 11.251953125 72.080078125 82.7314453125 72.080078125 211.42578125 c 0
 72.080078125 335.478515625 167.19921875 399.11328125 299.33984375 399.11328125 c 1
 299.33984375 349.16796875 l 1
 210.512695312 349.16796875 151.325195312 298.107421875 151.325195312 211.42578125 c 0
 151.325195312 124.745117188 210.512695312 73.6845703125 299.33984375 73.6845703125 c 0
 388.166992188 73.6845703125 447.354492188 124.745117188 447.354492188 211.42578125 c 0
 447.354492188 298.107421875 388.166992188 349.16796875 299.33984375 349.16796875 c 1
0.0009765625 799.999023438 m 1
 0.0009765625 798.911132812 l 1
 598.680664062 798.911132812 l 1
 598.680664062 799.999023438 l 1
 0.0009765625 799.999023438 l 1
0.0009765625 -198.911132812 m 1
 0.0009765625 -199.999023438 l 1
 598.680664062 -199.999023438 l 1
 598.680664062 -198.911132812 l 1
 0.0009765625 -198.911132812 l 1
EndSplineSet
EndChar

StartChar: nine
Encoding: 57 57 25
Width: 599
Flags: HW
LayerCount: 2
Fore
SplineSet
95.30859375 136.810546875 m 1
 144.174804688 96.0244140625 205.807617188 73.6845703125 269.458007812 73.6845703125 c 0
 452.1484375 73.6845703125 447.354492188 267.577148438 447.354492188 479.982421875 c 0
 447.354492188 578.971679688 394.329101562 647.278320312 299.33984375 647.278320312 c 0
 204.350585938 647.278320312 151.325195312 578.971679688 151.325195312 479.982421875 c 0
 151.325195312 384.34375 206.098632812 320.490234375 299.33984375 320.490234375 c 0
 392.581054688 320.490234375 447.354492188 384.34375 447.354492188 479.982421875 c 1
 480.131835938 479.982421875 l 1
 503.776367188 365.438476562 416.298828125 258.057617188 299.33984375 258.057617188 c 0
 160.946289062 258.057617188 72.080078125 342.706054688 72.080078125 479.982421875 c 0
 72.080078125 620.459960938 159.379882812 709.709960938 299.33984375 709.709960938 c 0
 456.966796875 709.709960938 526.599609375 578.752929688 526.599609375 406.0078125 c 0
 526.599609375 187.296875 462.76953125 11.251953125 269.458007812 11.251953125 c 0
 191.12890625 11.251953125 115.288085938 38.7646484375 55.177734375 88.9853515625 c 1
 95.30859375 136.810546875 l 1
0.0009765625 799.999023438 m 1
 0.0009765625 798.911132812 l 1
 598.680664062 798.911132812 l 1
 598.680664062 799.999023438 l 1
 0.0009765625 799.999023438 l 1
0.0009765625 -198.911132812 m 1
 0.0009765625 -199.999023438 l 1
 598.680664062 -199.999023438 l 1
 598.680664062 -198.911132812 l 1
 0.0009765625 -198.911132812 l 1
EndSplineSet
EndChar

StartChar: colon
Encoding: 58 58 26
Width: 599
Flags: HW
LayerCount: 2
Fore
SplineSet
348.868164062 60.7802734375 m 0
 348.868164062 47.6435546875 343.6484375 35.046875 334.360351562 25.759765625 c 0
 325.072265625 16.4716796875 312.475585938 11.251953125 299.33984375 11.251953125 c 0
 286.204101562 11.251953125 273.607421875 16.4716796875 264.319335938 25.759765625 c 0
 255.03125 35.046875 249.811523438 47.6435546875 249.811523438 60.7802734375 c 0
 249.811523438 73.916015625 255.03125 86.5126953125 264.319335938 95.80078125 c 0
 273.607421875 105.088867188 286.204101562 110.307617188 299.33984375 110.307617188 c 0
 312.475585938 110.307617188 325.072265625 105.088867188 334.360351562 95.80078125 c 0
 343.6484375 86.5126953125 348.868164062 73.916015625 348.868164062 60.7802734375 c 0
348.868164062 484.591796875 m 0
 348.868164062 471.456054688 343.6484375 458.859375 334.360351562 449.571289062 c 0
 325.072265625 440.283203125 312.475585938 435.064453125 299.33984375 435.064453125 c 0
 286.204101562 435.064453125 273.607421875 440.283203125 264.319335938 449.571289062 c 0
 255.03125 458.859375 249.811523438 471.456054688 249.811523438 484.591796875 c 0
 249.811523438 497.728515625 255.03125 510.325195312 264.319335938 519.61328125 c 0
 273.607421875 528.901367188 286.204101562 534.120117188 299.33984375 534.120117188 c 0
 312.475585938 534.120117188 325.072265625 528.901367188 334.360351562 519.61328125 c 0
 343.6484375 510.325195312 348.868164062 497.728515625 348.868164062 484.591796875 c 0
0.0009765625 799.999023438 m 1
 0.0009765625 798.911132812 l 1
 598.680664062 798.911132812 l 1
 598.680664062 799.999023438 l 1
 0.0009765625 799.999023438 l 1
0.0009765625 -198.911132812 m 1
 0.0009765625 -199.999023438 l 1
 598.680664062 -199.999023438 l 1
 598.680664062 -198.911132812 l 1
 0.0009765625 -198.911132812 l 1
EndSplineSet
EndChar

StartChar: semicolon
Encoding: 59 59 27
Width: 599
Flags: HW
LayerCount: 2
Fore
SplineSet
348.868164062 484.591796875 m 0
 348.868164062 471.456054688 343.6484375 458.859375 334.360351562 449.571289062 c 0
 325.072265625 440.283203125 312.475585938 435.064453125 299.33984375 435.064453125 c 0
 286.204101562 435.064453125 273.607421875 440.283203125 264.319335938 449.571289062 c 0
 255.03125 458.859375 249.811523438 471.456054688 249.811523438 484.591796875 c 0
 249.811523438 497.728515625 255.03125 510.325195312 264.319335938 519.61328125 c 0
 273.607421875 528.901367188 286.204101562 534.120117188 299.33984375 534.120117188 c 0
 312.475585938 534.120117188 325.072265625 528.901367188 334.360351562 519.61328125 c 0
 343.6484375 510.325195312 348.868164062 497.728515625 348.868164062 484.591796875 c 0
348.868164062 60.7802734375 m 0
 348.868164062 47.6435546875 343.6484375 35.046875 334.360351562 25.759765625 c 0
 325.072265625 16.4716796875 312.475585938 11.251953125 299.33984375 11.251953125 c 0
 286.204101562 11.251953125 273.607421875 16.4716796875 264.319335938 25.759765625 c 0
 255.03125 35.046875 249.811523438 47.6435546875 249.811523438 60.7802734375 c 0
 249.811523438 73.916015625 255.03125 86.5126953125 264.319335938 95.80078125 c 0
 273.607421875 105.088867188 286.204101562 110.307617188 299.33984375 110.307617188 c 0
 312.475585938 110.307617188 325.072265625 105.088867188 334.360351562 95.80078125 c 0
 343.6484375 86.5126953125 348.868164062 73.916015625 348.868164062 60.7802734375 c 0
269.623046875 60.7802734375 m 1
 348.868164062 60.7802734375 l 1
 348.868164062 -78.4931640625 l 1
 285.471679688 -78.4931640625 l 1
 269.623046875 60.7802734375 l 1
0.0009765625 799.999023438 m 1
 0.0009765625 798.911132812 l 1
 598.680664062 798.911132812 l 1
 598.680664062 799.999023438 l 1
 0.0009765625 799.999023438 l 1
0.0009765625 -198.911132812 m 1
 0.0009765625 -199.999023438 l 1
 598.680664062 -199.999023438 l 1
 598.680664062 -198.911132812 l 1
 0.0009765625 -198.911132812 l 1
EndSplineSet
EndChar

StartChar: less
Encoding: 60 60 28
Width: 599
Flags: HW
LayerCount: 2
Fore
SplineSet
72.080078125 241.469726562 m 1
 72.080078125 303.90234375 l 1
 526.599609375 556.18359375 l 1
 526.599609375 476.938476562 l 1
 72.080078125 241.469726562 l 1
72.080078125 241.469726562 m 1
 72.080078125 303.90234375 l 1
 526.599609375 68.43359375 l 1
 526.599609375 -10.810546875 l 1
 72.080078125 241.469726562 l 1
0.0009765625 799.999023438 m 1
 0.0009765625 798.911132812 l 1
 598.680664062 798.911132812 l 1
 598.680664062 799.999023438 l 1
 0.0009765625 799.999023438 l 1
0.0009765625 -198.911132812 m 1
 0.0009765625 -199.999023438 l 1
 598.680664062 -199.999023438 l 1
 598.680664062 -198.911132812 l 1
 0.0009765625 -198.911132812 l 1
EndSplineSet
EndChar

StartChar: equal
Encoding: 61 61 29
Width: 599
Flags: HW
LayerCount: 2
Fore
SplineSet
107.848632812 327.916015625 m 1
 107.848632812 390.348632812 l 1
 490.831054688 390.348632812 l 1
 490.831054688 327.916015625 l 1
 107.848632812 327.916015625 l 1
490.831054688 217.456054688 m 1
 490.831054688 155.024414062 l 1
 107.848632812 155.024414062 l 1
 107.848632812 217.456054688 l 1
 490.831054688 217.456054688 l 1
0.0009765625 799.999023438 m 1
 0.0009765625 798.911132812 l 1
 598.680664062 798.911132812 l 1
 598.680664062 799.999023438 l 1
 0.0009765625 799.999023438 l 1
0.0009765625 -198.911132812 m 1
 0.0009765625 -199.999023438 l 1
 598.680664062 -199.999023438 l 1
 598.680664062 -198.911132812 l 1
 0.0009765625 -198.911132812 l 1
EndSplineSet
EndChar

StartChar: greater
Encoding: 62 62 30
Width: 599
Flags: HW
LayerCount: 2
Fore
SplineSet
526.599609375 241.469726562 m 1
 72.080078125 476.938476562 l 1
 72.080078125 556.18359375 l 1
 526.599609375 303.90234375 l 1
 526.599609375 241.469726562 l 1
526.599609375 241.469726562 m 1
 72.080078125 -10.810546875 l 1
 72.080078125 68.43359375 l 1
 526.599609375 303.90234375 l 1
 526.599609375 241.469726562 l 1
0.0009765625 799.999023438 m 1
 0.0009765625 798.911132812 l 1
 598.680664062 798.911132812 l 1
 598.680664062 799.999023438 l 1
 0.0009765625 799.999023438 l 1
0.0009765625 -198.911132812 m 1
 0.0009765625 -199.999023438 l 1
 598.680664062 -199.999023438 l 1
 598.680664062 -198.911132812 l 1
 0.0009765625 -198.911132812 l 1
EndSplineSet
EndChar

StartChar: question
Encoding: 63 63 31
Width: 599
Flags: HW
LayerCount: 2
Fore
SplineSet
40.2412109375 599.493164062 m 1
 108.040039062 669.91796875 201.583984375 709.709960938 299.33984375 709.709960938 c 0
 430.294921875 709.709960938 526.599609375 650.66015625 526.599609375 529.140625 c 0
 526.599609375 429.779296875 451.349609375 389.827148438 374.0390625 326.336914062 c 0
 333.76171875 293.259765625 297.125976562 251.729492188 297.125976562 200.010742188 c 1
 217.881835938 200.010742188 l 1
 217.881835938 278.673828125 288.829101562 334.64453125 352.685546875 385.00390625 c 0
 400.622070312 422.807617188 447.354492188 468.68359375 447.354492188 529.140625 c 0
 447.354492188 608.47265625 384.71875 647.278320312 299.33984375 647.278320312 c 0
 216.223632812 647.278320312 136.870117188 612.62890625 80.3720703125 551.66796875 c 1
 40.2412109375 599.493164062 l 1
307.032226562 60.7802734375 m 0
 307.032226562 47.6435546875 301.8125 35.046875 292.524414062 25.759765625 c 0
 283.237304688 16.4716796875 270.640625 11.251953125 257.50390625 11.251953125 c 0
 244.368164062 11.251953125 231.771484375 16.4716796875 222.483398438 25.759765625 c 0
 213.1953125 35.046875 207.9765625 47.6435546875 207.9765625 60.7802734375 c 0
 207.9765625 73.916015625 213.1953125 86.5126953125 222.483398438 95.80078125 c 0
 231.771484375 105.088867188 244.368164062 110.307617188 257.50390625 110.307617188 c 0
 270.640625 110.307617188 283.237304688 105.088867188 292.524414062 95.80078125 c 0
 301.8125 86.5126953125 307.032226562 73.916015625 307.032226562 60.7802734375 c 0
0.0009765625 799.999023438 m 1
 0.0009765625 798.911132812 l 1
 598.680664062 798.911132812 l 1
 598.680664062 799.999023438 l 1
 0.0009765625 799.999023438 l 1
0.0009765625 -198.911132812 m 1
 0.0009765625 -199.999023438 l 1
 598.680664062 -199.999023438 l 1
 598.680664062 -198.911132812 l 1
 0.0009765625 -198.911132812 l 1
EndSplineSet
EndChar

StartChar: at
Encoding: 64 64 32
Width: 584
Flags: HW
LayerCount: 2
Fore
SplineSet
452.334960938 13.697265625 m 1
 452.334960938 -47.20703125 l 1
 399.1796875 -54.1787109375 345.626953125 -57.67578125 292.016601562 -57.67578125 c 0
 91.6826171875 -57.67578125 34.3134765625 129.977539062 34.3134765625 358.665039062 c 0
 34.3134765625 587.3515625 91.6826171875 775.004882812 292.016601562 775.004882812 c 0
 506.4375 775.004882812 549.719726562 564.872070312 549.719726562 317.078125 c 2
 549.719726562 146.923828125 l 1
 472.4140625 146.923828125 l 1
 472.4140625 317.078125 l 2
 472.4140625 525.62109375 471.145507812 714.099609375 292.016601562 714.099609375 c 0
 129.18359375 714.099609375 111.619140625 548.151367188 111.619140625 358.665039062 c 0
 111.619140625 169.177734375 129.18359375 3.2294921875 292.016601562 3.2294921875 c 0
 345.626953125 3.2294921875 399.1796875 6.7255859375 452.334960938 13.697265625 c 1
473.743164062 434.642578125 m 1
 448.711914062 468.376953125 409.186523438 488.266601562 367.180664062 488.266601562 c 0
 297.740234375 488.266601562 263.805664062 433.412109375 263.805664062 358.665039062 c 0
 263.805664062 270.853515625 289.54296875 200.21484375 367.180664062 200.21484375 c 0
 410.680664062 200.21484375 450.844726562 223.532226562 472.4140625 261.30859375 c 1
 503.732421875 223.985351562 l 1
 477.991210938 172.1171875 425.084960938 139.310546875 367.180664062 139.310546875 c 0
 247.616210938 139.310546875 186.5 231.201171875 186.5 358.665039062 c 0
 186.5 473.63671875 254.264648438 549.170898438 367.180664062 549.170898438 c 0
 426.57421875 549.170898438 481.443359375 517.440429688 511.06640625 465.961914062 c 1
 473.743164062 434.642578125 l 1
0.0009765625 775.536132812 m 1
 0.0009765625 774.474609375 l 1
 584.034179688 774.474609375 l 1
 584.034179688 775.536132812 l 1
 0.0009765625 775.536132812 l 1
0.0009765625 -198.939453125 m 1
 0.0009765625 -200 l 1
 584.034179688 -200 l 1
 584.034179688 -198.939453125 l 1
 0.0009765625 -198.939453125 l 1
EndSplineSet
EndChar

StartChar: A
Encoding: 65 65 33
Width: 599
Flags: HW
LayerCount: 2
Fore
SplineSet
299.33984375 701.90625 m 1
 338.961914062 701.90625 l 1
 563.05859375 19.056640625 l 1
 483.814453125 19.056640625 l 1
 304.29296875 622.661132812 l 1
 299.33984375 662.284179688 l 1
 299.33984375 701.90625 l 1
259.717773438 701.90625 m 1
 299.33984375 701.90625 l 1
 299.33984375 662.284179688 l 1
 294.38671875 622.661132812 l 1
 114.262695312 19.056640625 l 1
 36.22265625 19.056640625 l 1
 259.717773438 701.90625 l 1
142.47265625 255.12890625 m 1
 456.20703125 255.12890625 l 1
 456.20703125 192.697265625 l 1
 142.47265625 192.697265625 l 1
 142.47265625 255.12890625 l 1
0.0009765625 799.999023438 m 1
 0.0009765625 798.911132812 l 1
 598.680664062 798.911132812 l 1
 598.680664062 799.999023438 l 1
 0.0009765625 799.999023438 l 1
0.0009765625 -198.911132812 m 1
 0.0009765625 -199.999023438 l 1
 598.680664062 -199.999023438 l 1
 598.680664062 -198.911132812 l 1
 0.0009765625 -198.911132812 l 1
EndSplineSet
EndChar

StartChar: B
Encoding: 66 66 34
Width: 599
Flags: HW
LayerCount: 2
Fore
SplineSet
107.848632812 701.90625 m 1
 320.2578125 701.90625 l 2
 439.793945312 701.90625 526.599609375 645.811523438 526.599609375 534.123046875 c 0
 526.599609375 421.307617188 440.3203125 363.209960938 320.2578125 363.209960938 c 2
 107.848632812 381.939453125 l 1
 107.848632812 413.155273438 l 1
 320.2578125 413.155273438 l 2
 395.58984375 413.155273438 447.354492188 453.877929688 447.354492188 526.314453125 c 0
 447.354492188 598.751953125 395.58984375 639.474609375 320.2578125 639.474609375 c 2
 107.848632812 639.474609375 l 1
 107.848632812 701.90625 l 1
107.848632812 381.939453125 m 1
 320.2578125 388.182617188 l 2
 442.133789062 388.182617188 526.599609375 323.532226562 526.599609375 206.8359375 c 0
 526.599609375 87.662109375 443.298828125 19.056640625 320.2578125 19.056640625 c 2
 107.848632812 19.056640625 l 1
 147.470703125 81.48828125 l 1
 320.2578125 81.48828125 l 2
 399.81640625 81.48828125 447.354492188 134.973632812 447.354492188 216.10546875 c 0
 447.354492188 297.23828125 399.81640625 350.723632812 320.2578125 350.723632812 c 2
 107.848632812 350.723632812 l 1
 107.848632812 381.939453125 l 1
107.848632812 701.90625 m 1
 187.09375 701.90625 l 1
 187.09375 19.056640625 l 1
 107.848632812 19.056640625 l 1
 107.848632812 701.90625 l 1
0.0009765625 799.999023438 m 1
 0.0009765625 798.911132812 l 1
 598.680664062 798.911132812 l 1
 598.680664062 799.999023438 l 1
 0.0009765625 799.999023438 l 1
0.0009765625 -198.911132812 m 1
 0.0009765625 -199.999023438 l 1
 598.680664062 -199.999023438 l 1
 598.680664062 -198.911132812 l 1
 0.0009765625 -198.911132812 l 1
EndSplineSet
EndChar

StartChar: C
Encoding: 67 67 35
Width: 599
Flags: HW
LayerCount: 2
Fore
SplineSet
506.534179688 558.028320312 m 1
 472.546875 613.477539062 412.184570312 647.278320312 347.1484375 647.278320312 c 0
 204.149414062 647.278320312 151.325195312 520.721679688 151.325195312 360.481445312 c 0
 151.325195312 203.794921875 206.447265625 81.48828125 347.1484375 81.48828125 c 0
 419.004882812 81.48828125 468.137695312 108.555664062 506.534179688 169.294921875 c 1
 546.6640625 121.469726562 l 1
 500.54296875 57.181640625 426.26953125 19.056640625 347.1484375 19.056640625 c 0
 163.250976562 19.056640625 72.080078125 163.114257812 72.080078125 360.481445312 c 0
 72.080078125 561.325195312 161.25 709.709960938 347.1484375 709.709960938 c 0
 435.443359375 709.709960938 496.017578125 678.178710938 546.6640625 605.853515625 c 1
 506.534179688 558.028320312 l 1
0.0009765625 799.999023438 m 1
 0.0009765625 798.911132812 l 1
 598.680664062 798.911132812 l 1
 598.680664062 799.999023438 l 1
 0.0009765625 799.999023438 l 1
0.0009765625 -198.911132812 m 1
 0.0009765625 -199.999023438 l 1
 598.680664062 -199.999023438 l 1
 598.680664062 -198.911132812 l 1
 0.0009765625 -198.911132812 l 1
EndSplineSet
EndChar

StartChar: D
Encoding: 68 68 36
Width: 599
Flags: HW
LayerCount: 2
Fore
SplineSet
107.848632812 639.474609375 m 1
 107.848632812 701.90625 l 1
 269.458007812 701.90625 l 2
 451.11328125 701.90625 545.052734375 563.370117188 545.052734375 370.233398438 c 0
 545.052734375 168.43359375 456.044921875 19.056640625 269.458007812 19.056640625 c 2
 107.848632812 19.056640625 l 1
 107.848632812 81.48828125 l 1
 269.458007812 81.48828125 l 2
 413.193359375 81.48828125 465.807617188 209.026367188 465.807617188 370.233398438 c 0
 465.807617188 522.576171875 407.5390625 639.474609375 269.458007812 639.474609375 c 2
 107.848632812 639.474609375 l 1
107.848632812 701.90625 m 1
 187.09375 701.90625 l 1
 187.09375 19.056640625 l 1
 107.848632812 19.056640625 l 1
 107.848632812 701.90625 l 1
0.0009765625 799.999023438 m 1
 0.0009765625 798.911132812 l 1
 598.680664062 798.911132812 l 1
 598.680664062 799.999023438 l 1
 0.0009765625 799.999023438 l 1
0.0009765625 -198.911132812 m 1
 0.0009765625 -199.999023438 l 1
 598.680664062 -199.999023438 l 1
 598.680664062 -198.911132812 l 1
 0.0009765625 -198.911132812 l 1
EndSplineSet
EndChar

StartChar: E
Encoding: 69 69 37
Width: 599
Flags: HW
LayerCount: 2
Fore
SplineSet
107.848632812 701.90625 m 1
 187.09375 701.90625 l 1
 187.09375 19.056640625 l 1
 107.848632812 19.056640625 l 1
 107.848632812 701.90625 l 1
147.470703125 639.474609375 m 1
 147.470703125 701.90625 l 1
 538.373046875 701.90625 l 1
 538.373046875 639.474609375 l 1
 147.470703125 639.474609375 l 1
147.470703125 329.265625 m 1
 147.470703125 391.697265625 l 1
 478.610351562 391.697265625 l 1
 478.610351562 329.265625 l 1
 147.470703125 329.265625 l 1
147.470703125 19.056640625 m 1
 147.470703125 81.48828125 l 1
 568.25390625 81.48828125 l 1
 568.25390625 19.056640625 l 1
 147.470703125 19.056640625 l 1
0.0009765625 799.999023438 m 1
 0.0009765625 798.911132812 l 1
 598.680664062 798.911132812 l 1
 598.680664062 799.999023438 l 1
 0.0009765625 799.999023438 l 1
0.0009765625 -198.911132812 m 1
 0.0009765625 -199.999023438 l 1
 598.680664062 -199.999023438 l 1
 598.680664062 -198.911132812 l 1
 0.0009765625 -198.911132812 l 1
EndSplineSet
EndChar

StartChar: F
Encoding: 70 70 38
Width: 599
Flags: HW
LayerCount: 2
Fore
SplineSet
107.848632812 701.90625 m 1
 187.09375 701.90625 l 1
 187.09375 19.056640625 l 1
 107.848632812 19.056640625 l 1
 107.848632812 701.90625 l 1
147.470703125 639.474609375 m 1
 147.470703125 701.90625 l 1
 538.373046875 701.90625 l 1
 538.373046875 639.474609375 l 1
 147.470703125 639.474609375 l 1
147.470703125 329.265625 m 1
 147.470703125 391.697265625 l 1
 478.610351562 391.697265625 l 1
 478.610351562 329.265625 l 1
 147.470703125 329.265625 l 1
0.0009765625 799.999023438 m 1
 0.0009765625 798.911132812 l 1
 598.680664062 798.911132812 l 1
 598.680664062 799.999023438 l 1
 0.0009765625 799.999023438 l 1
0.0009765625 -198.911132812 m 1
 0.0009765625 -199.999023438 l 1
 598.680664062 -199.999023438 l 1
 598.680664062 -198.911132812 l 1
 0.0009765625 -198.911132812 l 1
EndSplineSet
EndChar

StartChar: G
Encoding: 71 71 39
Width: 599
Flags: HW
LayerCount: 2
Fore
SplineSet
486.46875 559.471679688 m 1
 452.83984375 614.043945312 393.322265625 647.278320312 329.221679688 647.278320312 c 0
 191.125 647.278320312 151.325195312 518.068359375 151.325195312 360.481445312 c 0
 151.325195312 206.473632812 193.631835938 81.48828125 329.221679688 81.48828125 c 0
 396.30078125 81.48828125 462.944335938 92.275390625 526.599609375 113.435546875 c 1
 526.599609375 51.0029296875 l 1
 462.944335938 29.8427734375 396.30078125 19.056640625 329.221679688 19.056640625 c 0
 151.470703125 19.056640625 72.080078125 166.018554688 72.080078125 360.481445312 c 0
 72.080078125 558.465820312 149.329101562 709.709960938 329.221679688 709.709960938 c 0
 407.755859375 709.709960938 481.381835938 671.5078125 526.599609375 607.296875 c 1
 486.46875 559.471679688 l 1
447.354492188 51.0029296875 m 1
 447.354492188 360.481445312 l 1
 526.599609375 360.481445312 l 1
 526.599609375 51.0029296875 l 1
 447.354492188 51.0029296875 l 1
526.599609375 391.697265625 m 1
 526.599609375 329.265625 l 1
 299.33984375 329.265625 l 1
 299.33984375 391.697265625 l 1
 526.599609375 391.697265625 l 1
0.0009765625 799.999023438 m 1
 0.0009765625 798.911132812 l 1
 598.680664062 798.911132812 l 1
 598.680664062 799.999023438 l 1
 0.0009765625 799.999023438 l 1
0.0009765625 -198.911132812 m 1
 0.0009765625 -199.999023438 l 1
 598.680664062 -199.999023438 l 1
 598.680664062 -198.911132812 l 1
 0.0009765625 -198.911132812 l 1
EndSplineSet
EndChar

StartChar: H
Encoding: 72 72 40
Width: 599
Flags: HW
LayerCount: 2
Fore
SplineSet
107.848632812 701.90625 m 1
 187.09375 701.90625 l 1
 187.09375 19.056640625 l 1
 107.848632812 19.056640625 l 1
 107.848632812 701.90625 l 1
411.5859375 19.056640625 m 1
 411.5859375 701.90625 l 1
 490.831054688 701.90625 l 1
 490.831054688 19.056640625 l 1
 411.5859375 19.056640625 l 1
147.470703125 363.41015625 m 1
 147.470703125 425.841796875 l 1
 451.208984375 425.841796875 l 1
 451.208984375 363.41015625 l 1
 147.470703125 363.41015625 l 1
0.0009765625 799.999023438 m 1
 0.0009765625 798.911132812 l 1
 598.680664062 798.911132812 l 1
 598.680664062 799.999023438 l 1
 0.0009765625 799.999023438 l 1
0.0009765625 -198.911132812 m 1
 0.0009765625 -199.999023438 l 1
 598.680664062 -199.999023438 l 1
 598.680664062 -198.911132812 l 1
 0.0009765625 -198.911132812 l 1
EndSplineSet
EndChar

StartChar: I
Encoding: 73 73 41
Width: 599
Flags: HW
LayerCount: 2
Fore
SplineSet
89.96484375 701.90625 m 1
 508.71484375 701.90625 l 1
 508.71484375 639.474609375 l 1
 89.96484375 639.474609375 l 1
 89.96484375 701.90625 l 1
89.96484375 19.056640625 m 1
 89.96484375 81.48828125 l 1
 508.71484375 81.48828125 l 1
 508.71484375 19.056640625 l 1
 89.96484375 19.056640625 l 1
259.717773438 701.90625 m 1
 338.961914062 701.90625 l 1
 338.961914062 19.056640625 l 1
 259.717773438 19.056640625 l 1
 259.717773438 701.90625 l 1
0.0009765625 799.999023438 m 1
 0.0009765625 798.911132812 l 1
 598.680664062 798.911132812 l 1
 598.680664062 799.999023438 l 1
 0.0009765625 799.999023438 l 1
0.0009765625 -198.911132812 m 1
 0.0009765625 -199.999023438 l 1
 598.680664062 -199.999023438 l 1
 598.680664062 -198.911132812 l 1
 0.0009765625 -198.911132812 l 1
EndSplineSet
EndChar

StartChar: J
Encoding: 74 74 42
Width: 599
Flags: HW
LayerCount: 2
Fore
SplineSet
411.5859375 701.90625 m 1
 490.831054688 701.90625 l 1
 490.831054688 240.985351562 l 2
 490.831054688 105.55078125 419.750976562 11.251953125 290.375976562 11.251953125 c 0
 207.780273438 11.251953125 151.342773438 42.681640625 107.848632812 112.8984375 c 1
 147.979492188 160.723632812 l 1
 178.3984375 101.35546875 223.668945312 73.6845703125 290.375976562 73.6845703125 c 0
 375.923828125 73.6845703125 411.5859375 146.446289062 411.5859375 240.985351562 c 2
 411.5859375 701.90625 l 1
163.005859375 639.474609375 m 1
 163.005859375 701.90625 l 1
 451.208984375 701.90625 l 1
 451.208984375 639.474609375 l 1
 163.005859375 639.474609375 l 1
0.0009765625 799.999023438 m 1
 0.0009765625 798.911132812 l 1
 598.680664062 798.911132812 l 1
 598.680664062 799.999023438 l 1
 0.0009765625 799.999023438 l 1
0.0009765625 -198.911132812 m 1
 0.0009765625 -199.999023438 l 1
 598.680664062 -199.999023438 l 1
 598.680664062 -198.911132812 l 1
 0.0009765625 -198.911132812 l 1
EndSplineSet
EndChar

StartChar: K
Encoding: 75 75 43
Width: 599
Flags: HW
LayerCount: 2
Fore
SplineSet
107.848632812 701.90625 m 1
 187.09375 701.90625 l 1
 187.09375 19.056640625 l 1
 107.848632812 19.056640625 l 1
 107.848632812 701.90625 l 1
462.958984375 701.90625 m 1
 554.041992188 701.90625 l 1
 266.337890625 360.481445312 l 1
 554.041992188 19.056640625 l 1
 462.958984375 19.056640625 l 1
 187.09375 360.481445312 l 1
 462.958984375 701.90625 l 1
0.0009765625 799.999023438 m 1
 0.0009765625 798.911132812 l 1
 598.680664062 798.911132812 l 1
 598.680664062 799.999023438 l 1
 0.0009765625 799.999023438 l 1
0.0009765625 -198.911132812 m 1
 0.0009765625 -199.999023438 l 1
 598.680664062 -199.999023438 l 1
 598.680664062 -198.911132812 l 1
 0.0009765625 -198.911132812 l 1
EndSplineSet
EndChar

StartChar: L
Encoding: 76 76 44
Width: 599
Flags: HW
LayerCount: 2
Fore
SplineSet
107.848632812 701.90625 m 1
 187.09375 701.90625 l 1
 187.09375 19.056640625 l 1
 107.848632812 19.056640625 l 1
 107.848632812 701.90625 l 1
147.470703125 19.056640625 m 1
 147.470703125 81.48828125 l 1
 550.327148438 81.48828125 l 1
 550.327148438 19.056640625 l 1
 147.470703125 19.056640625 l 1
0.0009765625 799.999023438 m 1
 0.0009765625 798.911132812 l 1
 598.680664062 798.911132812 l 1
 598.680664062 799.999023438 l 1
 0.0009765625 799.999023438 l 1
0.0009765625 -198.911132812 m 1
 0.0009765625 -199.999023438 l 1
 598.680664062 -199.999023438 l 1
 598.680664062 -198.911132812 l 1
 0.0009765625 -198.911132812 l 1
EndSplineSet
EndChar

StartChar: M
Encoding: 77 77 45
Width: 599
Flags: HW
LayerCount: 2
Fore
SplineSet
107.848632812 701.90625 m 1
 178.6875 701.90625 l 1
 178.6875 19.056640625 l 1
 107.848632812 19.056640625 l 1
 107.848632812 701.90625 l 1
419.9921875 701.90625 m 1
 490.831054688 701.90625 l 1
 490.831054688 19.056640625 l 1
 419.9921875 19.056640625 l 1
 419.9921875 701.90625 l 1
107.848632812 701.90625 m 1
 178.6875 701.90625 l 1
 330.555664062 189.768554688 l 1
 268.124023438 189.768554688 l 1
 107.848632812 701.90625 l 1
419.9921875 701.90625 m 1
 490.831054688 701.90625 l 1
 330.555664062 189.768554688 l 1
 268.124023438 189.768554688 l 1
 419.9921875 701.90625 l 1
0.0009765625 799.999023438 m 1
 0.0009765625 798.911132812 l 1
 598.680664062 798.911132812 l 1
 598.680664062 799.999023438 l 1
 0.0009765625 799.999023438 l 1
0.0009765625 -198.911132812 m 1
 0.0009765625 -199.999023438 l 1
 598.680664062 -199.999023438 l 1
 598.680664062 -198.911132812 l 1
 0.0009765625 -198.911132812 l 1
EndSplineSet
EndChar

StartChar: N
Encoding: 78 78 46
Width: 599
Flags: HW
LayerCount: 2
Fore
SplineSet
107.848632812 701.90625 m 1
 187.09375 701.90625 l 1
 187.09375 19.056640625 l 1
 107.848632812 19.056640625 l 1
 107.848632812 701.90625 l 1
411.5859375 701.90625 m 1
 490.831054688 701.90625 l 1
 490.831054688 19.056640625 l 1
 411.5859375 19.056640625 l 1
 411.5859375 701.90625 l 1
107.848632812 701.90625 m 1
 187.09375 701.90625 l 1
 474.018554688 19.056640625 l 1
 411.5859375 19.056640625 l 1
 107.848632812 701.90625 l 1
0.0009765625 799.999023438 m 1
 0.0009765625 798.911132812 l 1
 598.680664062 798.911132812 l 1
 598.680664062 799.999023438 l 1
 0.0009765625 799.999023438 l 1
0.0009765625 -198.911132812 m 1
 0.0009765625 -199.999023438 l 1
 598.680664062 -199.999023438 l 1
 598.680664062 -198.911132812 l 1
 0.0009765625 -198.911132812 l 1
EndSplineSet
EndChar

StartChar: O
Encoding: 79 79 47
Width: 599
Flags: HW
LayerCount: 2
Fore
SplineSet
299.33984375 709.709960938 m 1
 470.294921875 709.709960938 526.599609375 553.935546875 526.599609375 360.481445312 c 0
 526.599609375 167.02734375 470.294921875 11.251953125 299.33984375 11.251953125 c 0
 128.384765625 11.251953125 72.080078125 167.02734375 72.080078125 360.481445312 c 0
 72.080078125 553.935546875 128.384765625 709.709960938 299.33984375 709.709960938 c 1
 299.33984375 647.278320312 l 1
 167.5546875 647.278320312 151.325195312 513.733398438 151.325195312 360.481445312 c 0
 151.325195312 207.228515625 167.5546875 73.6845703125 299.33984375 73.6845703125 c 0
 431.125 73.6845703125 447.354492188 207.228515625 447.354492188 360.481445312 c 0
 447.354492188 513.733398438 431.125 647.278320312 299.33984375 647.278320312 c 1
 299.33984375 709.709960938 l 1
0.0009765625 799.999023438 m 1
 0.0009765625 798.911132812 l 1
 598.680664062 798.911132812 l 1
 598.680664062 799.999023438 l 1
 0.0009765625 799.999023438 l 1
0.0009765625 -198.911132812 m 1
 0.0009765625 -199.999023438 l 1
 598.680664062 -199.999023438 l 1
 598.680664062 -198.911132812 l 1
 0.0009765625 -198.911132812 l 1
EndSplineSet
EndChar

StartChar: P
Encoding: 80 80 48
Width: 599
Flags: HW
LayerCount: 2
Fore
SplineSet
107.848632812 701.90625 m 1
 187.09375 701.90625 l 1
 187.09375 19.056640625 l 1
 107.848632812 19.056640625 l 1
 107.848632812 701.90625 l 1
147.470703125 701.90625 m 1
 329.221679688 701.90625 l 2
 451.8828125 701.90625 526.599609375 621.27734375 526.599609375 497.048828125 c 0
 526.599609375 372.8203125 451.8828125 292.192382812 329.221679688 292.192382812 c 2
 147.470703125 292.192382812 l 1
 147.470703125 354.624023438 l 1
 329.221679688 354.624023438 l 2
 407.150390625 354.624023438 447.354492188 414.149414062 447.354492188 497.048828125 c 0
 447.354492188 579.94921875 407.150390625 639.474609375 329.221679688 639.474609375 c 2
 147.470703125 639.474609375 l 1
 147.470703125 701.90625 l 1
0.0009765625 799.999023438 m 1
 0.0009765625 798.911132812 l 1
 598.680664062 798.911132812 l 1
 598.680664062 799.999023438 l 1
 0.0009765625 799.999023438 l 1
0.0009765625 -198.911132812 m 1
 0.0009765625 -199.999023438 l 1
 598.680664062 -199.999023438 l 1
 598.680664062 -198.911132812 l 1
 0.0009765625 -198.911132812 l 1
EndSplineSet
EndChar

StartChar: Q
Encoding: 81 81 49
Width: 599
Flags: HW
LayerCount: 2
Fore
SplineSet
299.33984375 709.709960938 m 1
 470.294921875 709.709960938 526.599609375 553.935546875 526.599609375 360.481445312 c 0
 526.599609375 167.02734375 470.294921875 11.251953125 299.33984375 11.251953125 c 0
 128.384765625 11.251953125 72.080078125 167.02734375 72.080078125 360.481445312 c 0
 72.080078125 553.935546875 128.384765625 709.709960938 299.33984375 709.709960938 c 1
 299.33984375 647.278320312 l 1
 167.5546875 647.278320312 151.325195312 513.733398438 151.325195312 360.481445312 c 0
 151.325195312 207.228515625 167.5546875 73.6845703125 299.33984375 73.6845703125 c 0
 431.125 73.6845703125 447.354492188 207.228515625 447.354492188 360.481445312 c 0
 447.354492188 513.733398438 431.125 647.278320312 299.33984375 647.278320312 c 1
 299.33984375 709.709960938 l 1
338.961914062 19.056640625 m 1
 338.961914062 -41.4736328125 354.850585938 -105.807617188 407.083007812 -105.807617188 c 2
 486.9765625 -105.807617188 l 1
 486.9765625 -168.239257812 l 1
 407.083007812 -168.239257812 l 2
 317.403320312 -168.239257812 259.717773438 -77.86328125 259.717773438 19.056640625 c 1
 338.961914062 19.056640625 l 1
0.0009765625 799.999023438 m 1
 0.0009765625 798.911132812 l 1
 598.680664062 798.911132812 l 1
 598.680664062 799.999023438 l 1
 0.0009765625 799.999023438 l 1
0.0009765625 -198.911132812 m 1
 0.0009765625 -199.999023438 l 1
 598.680664062 -199.999023438 l 1
 598.680664062 -198.911132812 l 1
 0.0009765625 -198.911132812 l 1
EndSplineSet
EndChar

StartChar: R
Encoding: 82 82 50
Width: 599
Flags: HW
LayerCount: 2
Fore
SplineSet
107.848632812 701.90625 m 1
 187.09375 701.90625 l 1
 187.09375 19.056640625 l 1
 107.848632812 19.056640625 l 1
 107.848632812 701.90625 l 1
147.470703125 701.90625 m 1
 329.221679688 701.90625 l 2
 451.8828125 701.90625 526.599609375 621.27734375 526.599609375 497.048828125 c 0
 526.599609375 372.8203125 451.8828125 292.192382812 329.221679688 292.192382812 c 2
 147.470703125 292.192382812 l 1
 147.470703125 354.624023438 l 1
 329.221679688 354.624023438 l 2
 407.150390625 354.624023438 447.354492188 414.149414062 447.354492188 497.048828125 c 0
 447.354492188 579.94921875 407.150390625 639.474609375 329.221679688 639.474609375 c 2
 147.470703125 639.474609375 l 1
 147.470703125 701.90625 l 1
368.84375 323.408203125 m 1
 526.599609375 19.056640625 l 1
 447.354492188 19.056640625 l 1
 289.598632812 323.408203125 l 1
 368.84375 323.408203125 l 1
0.0009765625 799.999023438 m 1
 0.0009765625 798.911132812 l 1
 598.680664062 798.911132812 l 1
 598.680664062 799.999023438 l 1
 0.0009765625 799.999023438 l 1
0.0009765625 -198.911132812 m 1
 0.0009765625 -199.999023438 l 1
 598.680664062 -199.999023438 l 1
 598.680664062 -198.911132812 l 1
 0.0009765625 -198.911132812 l 1
EndSplineSet
EndChar

StartChar: S
Encoding: 83 83 51
Width: 599
Flags: HW
LayerCount: 2
Fore
SplineSet
305.3125 709.709960938 m 0
 395.581054688 709.709960938 481.1015625 669.266601562 538.373046875 599.493164062 c 1
 498.2421875 551.66796875 l 1
 452.38671875 611.912109375 381.022460938 647.278320312 305.3125 647.278320312 c 0
 216.967773438 647.278320312 151.325195312 608.825195312 151.325195312 527.310546875 c 0
 151.325195312 463.172851562 184.794921875 420.64453125 247.373046875 407.342773438 c 2
 364.287109375 382.491210938 l 2
 465.53515625 360.970703125 526.599609375 299.235351562 526.599609375 197.553710938 c 0
 526.599609375 72.4951171875 427.926757812 11.251953125 293.3671875 11.251953125 c 0
 206.401367188 11.251953125 124.474609375 52.0576171875 72.080078125 121.469726562 c 1
 112.2109375 169.294921875 l 1
 153.103515625 109.46484375 220.8984375 73.6845703125 293.3671875 73.6845703125 c 0
 382.350585938 73.6845703125 447.354492188 114.680664062 447.354492188 197.553710938 c 0
 447.354492188 263.205078125 414.9140625 307.903320312 351.306640625 321.423828125 c 2
 234.392578125 346.275390625 l 2
 134.095703125 367.594726562 72.080078125 427.052734375 72.080078125 527.310546875 c 0
 72.080078125 651.01171875 171.391601562 709.709960938 305.3125 709.709960938 c 0
0.0009765625 799.999023438 m 1
 0.0009765625 798.911132812 l 1
 598.680664062 798.911132812 l 1
 598.680664062 799.999023438 l 1
 0.0009765625 799.999023438 l 1
0.0009765625 -198.911132812 m 1
 0.0009765625 -199.999023438 l 1
 598.680664062 -199.999023438 l 1
 598.680664062 -198.911132812 l 1
 0.0009765625 -198.911132812 l 1
EndSplineSet
EndChar

StartChar: T
Encoding: 84 84 52
Width: 599
Flags: HW
LayerCount: 2
Fore
SplineSet
60.306640625 639.474609375 m 1
 60.306640625 701.90625 l 1
 538.373046875 701.90625 l 1
 538.373046875 639.474609375 l 1
 60.306640625 639.474609375 l 1
259.717773438 670.690429688 m 1
 338.961914062 670.690429688 l 1
 338.961914062 19.056640625 l 1
 259.717773438 19.056640625 l 1
 259.717773438 670.690429688 l 1
0.0009765625 799.999023438 m 1
 0.0009765625 798.911132812 l 1
 598.680664062 798.911132812 l 1
 598.680664062 799.999023438 l 1
 0.0009765625 799.999023438 l 1
0.0009765625 -198.911132812 m 1
 0.0009765625 -199.999023438 l 1
 598.680664062 -199.999023438 l 1
 598.680664062 -198.911132812 l 1
 0.0009765625 -198.911132812 l 1
EndSplineSet
EndChar

StartChar: U
Encoding: 85 85 53
Width: 599
Flags: HW
LayerCount: 2
Fore
SplineSet
72.080078125 701.90625 m 1
 151.325195312 701.90625 l 1
 151.325195312 246.315429688 l 2
 151.325195312 145.00390625 203.104492188 73.6845703125 299.33984375 73.6845703125 c 0
 396.025390625 73.6845703125 448.55859375 144.79296875 448.55859375 246.315429688 c 2
 448.55859375 701.90625 l 1
 526.599609375 701.90625 l 1
 526.599609375 246.315429688 l 2
 526.599609375 103.618164062 440.40234375 11.251953125 299.33984375 11.251953125 c 0
 158.27734375 11.251953125 72.080078125 103.618164062 72.080078125 246.315429688 c 2
 72.080078125 701.90625 l 1
0.0009765625 799.999023438 m 1
 0.0009765625 798.911132812 l 1
 598.680664062 798.911132812 l 1
 598.680664062 799.999023438 l 1
 0.0009765625 799.999023438 l 1
0.0009765625 -198.911132812 m 1
 0.0009765625 -199.999023438 l 1
 598.680664062 -199.999023438 l 1
 598.680664062 -198.911132812 l 1
 0.0009765625 -198.911132812 l 1
EndSplineSet
EndChar

StartChar: V
Encoding: 86 86 54
Width: 599
Flags: HW
LayerCount: 2
Fore
SplineSet
54.1962890625 701.90625 m 1
 133.44140625 701.90625 l 1
 323.11328125 19.056640625 l 1
 259.717773438 19.056640625 l 1
 54.1962890625 701.90625 l 1
465.23828125 701.90625 m 1
 544.483398438 701.90625 l 1
 338.961914062 19.056640625 l 1
 275.56640625 19.056640625 l 1
 465.23828125 701.90625 l 1
0.0009765625 799.999023438 m 1
 0.0009765625 798.911132812 l 1
 598.680664062 798.911132812 l 1
 598.680664062 799.999023438 l 1
 0.0009765625 799.999023438 l 1
0.0009765625 -198.911132812 m 1
 0.0009765625 -199.999023438 l 1
 598.680664062 -199.999023438 l 1
 598.680664062 -198.911132812 l 1
 0.0009765625 -198.911132812 l 1
EndSplineSet
EndChar

StartChar: W
Encoding: 87 87 55
Width: 599
Flags: HW
LayerCount: 2
Fore
SplineSet
54.1962890625 701.90625 m 1
 125.034179688 701.90625 l 1
 190.573242188 275.125 l 1
 215.728515625 19.056640625 l 1
 159.05859375 19.056640625 l 1
 119.735351562 275.125 l 1
 54.1962890625 701.90625 l 1
173.2265625 19.056640625 m 1
 198.381835938 229.034179688 l 1
 224.59765625 369.020507812 l 1
 263.920898438 578.998046875 l 1
 320.590820312 578.998046875 l 1
 295.435546875 369.020507812 l 1
 269.219726562 229.034179688 l 1
 229.896484375 19.056640625 l 1
 173.2265625 19.056640625 l 1
278.088867188 578.998046875 m 1
 334.758789062 578.998046875 l 1
 374.08203125 369.020507812 l 1
 400.297851562 229.034179688 l 1
 425.453125 19.056640625 l 1
 368.783203125 19.056640625 l 1
 329.459960938 229.034179688 l 1
 303.244140625 369.020507812 l 1
 278.088867188 578.998046875 l 1
382.951171875 19.056640625 m 1
 408.106445312 275.125 l 1
 473.64453125 701.90625 l 1
 544.483398438 701.90625 l 1
 478.944335938 275.125 l 1
 439.62109375 19.056640625 l 1
 382.951171875 19.056640625 l 1
0.0009765625 799.999023438 m 1
 0.0009765625 798.911132812 l 1
 598.680664062 798.911132812 l 1
 598.680664062 799.999023438 l 1
 0.0009765625 799.999023438 l 1
0.0009765625 -198.911132812 m 1
 0.0009765625 -199.999023438 l 1
 598.680664062 -199.999023438 l 1
 598.680664062 -198.911132812 l 1
 0.0009765625 -198.911132812 l 1
EndSplineSet
EndChar

StartChar: X
Encoding: 88 88 56
Width: 599
Flags: HW
LayerCount: 2
Fore
SplineSet
35.173828125 701.90625 m 1
 123.444335938 701.90625 l 1
 338.961914062 360.481445312 l 1
 563.505859375 19.056640625 l 1
 475.235351562 19.056640625 l 1
 259.717773438 360.481445312 l 1
 35.173828125 701.90625 l 1
475.235351562 701.90625 m 1
 563.505859375 701.90625 l 1
 338.961914062 360.481445312 l 1
 123.444335938 19.056640625 l 1
 35.173828125 19.056640625 l 1
 259.717773438 360.481445312 l 1
 475.235351562 701.90625 l 1
0.0009765625 799.999023438 m 1
 0.0009765625 798.911132812 l 1
 598.680664062 798.911132812 l 1
 598.680664062 799.999023438 l 1
 0.0009765625 799.999023438 l 1
0.0009765625 -198.911132812 m 1
 0.0009765625 -199.999023438 l 1
 598.680664062 -199.999023438 l 1
 598.680664062 -198.911132812 l 1
 0.0009765625 -198.911132812 l 1
EndSplineSet
EndChar

StartChar: Y
Encoding: 89 89 57
Width: 599
Flags: HW
LayerCount: 2
Fore
SplineSet
54.1962890625 701.90625 m 1
 133.44140625 701.90625 l 1
 323.11328125 326.336914062 l 1
 259.717773438 326.336914062 l 1
 54.1962890625 701.90625 l 1
465.23828125 701.90625 m 1
 544.483398438 701.90625 l 1
 338.961914062 326.336914062 l 1
 275.56640625 326.336914062 l 1
 465.23828125 701.90625 l 1
259.717773438 326.336914062 m 1
 338.961914062 326.336914062 l 1
 338.961914062 19.056640625 l 1
 259.717773438 19.056640625 l 1
 259.717773438 326.336914062 l 1
0.0009765625 799.999023438 m 1
 0.0009765625 798.911132812 l 1
 598.680664062 798.911132812 l 1
 598.680664062 799.999023438 l 1
 0.0009765625 799.999023438 l 1
0.0009765625 -198.911132812 m 1
 0.0009765625 -199.999023438 l 1
 598.680664062 -199.999023438 l 1
 598.680664062 -198.911132812 l 1
 0.0009765625 -198.911132812 l 1
EndSplineSet
EndChar

StartChar: Z
Encoding: 90 90 58
Width: 599
Flags: HW
LayerCount: 2
Fore
SplineSet
107.848632812 639.474609375 m 1
 107.848632812 701.90625 l 1
 490.831054688 701.90625 l 1
 490.831054688 639.474609375 l 1
 107.848632812 639.474609375 l 1
107.848632812 19.056640625 m 1
 107.848632812 81.48828125 l 1
 490.831054688 81.48828125 l 1
 490.831054688 19.056640625 l 1
 107.848632812 19.056640625 l 1
411.5859375 639.474609375 m 1
 490.831054688 639.474609375 l 1
 187.09375 81.48828125 l 1
 107.848632812 81.48828125 l 1
 411.5859375 639.474609375 l 1
0.0009765625 799.999023438 m 1
 0.0009765625 798.911132812 l 1
 598.680664062 798.911132812 l 1
 598.680664062 799.999023438 l 1
 0.0009765625 799.999023438 l 1
0.0009765625 -198.911132812 m 1
 0.0009765625 -199.999023438 l 1
 598.680664062 -199.999023438 l 1
 598.680664062 -198.911132812 l 1
 0.0009765625 -198.911132812 l 1
EndSplineSet
EndChar

StartChar: bracketleft
Encoding: 91 91 59
Width: 583
Flags: HW
LayerCount: 2
Fore
SplineSet
146.080078125 773.717773438 m 1
 223.284179688 773.717773438 l 1
 223.284179688 -81.623046875 l 1
 146.080078125 -81.623046875 l 1
 146.080078125 773.717773438 l 1
223.284179688 712.893554688 m 1
 223.284179688 773.717773438 l 1
 495.405273438 773.717773438 l 1
 495.405273438 712.893554688 l 1
 223.284179688 712.893554688 l 1
223.284179688 -81.623046875 m 1
 223.284179688 -20.798828125 l 1
 495.405273438 -20.798828125 l 1
 495.405273438 -81.623046875 l 1
 223.284179688 -81.623046875 l 1
0.0009765625 774.249023438 m 1
 0.0009765625 773.188476562 l 1
 583.262695312 773.188476562 l 1
 583.262695312 774.249023438 l 1
 0.0009765625 774.249023438 l 1
0.0009765625 -198.940429688 m 1
 0.0009765625 -200 l 1
 583.262695312 -200 l 1
 583.262695312 -198.940429688 l 1
 0.0009765625 -198.940429688 l 1
EndSplineSet
EndChar

StartChar: backslash
Encoding: 92 92 60
Width: 599
Flags: HW
LayerCount: 2
Fore
SplineSet
72.080078125 709.709960938 m 1
 151.325195312 709.709960938 l 1
 526.599609375 11.251953125 l 1
 447.354492188 11.251953125 l 1
 72.080078125 709.709960938 l 1
0.0009765625 799.999023438 m 1
 0.0009765625 798.911132812 l 1
 598.680664062 798.911132812 l 1
 598.680664062 799.999023438 l 1
 0.0009765625 799.999023438 l 1
0.0009765625 -198.911132812 m 1
 0.0009765625 -199.999023438 l 1
 598.680664062 -199.999023438 l 1
 598.680664062 -198.911132812 l 1
 0.0009765625 -198.911132812 l 1
EndSplineSet
EndChar

StartChar: bracketright
Encoding: 93 93 61
Width: 583
Flags: HW
LayerCount: 2
Fore
SplineSet
359.977539062 773.717773438 m 1
 437.181640625 773.717773438 l 1
 437.181640625 -81.623046875 l 1
 359.977539062 -81.623046875 l 1
 359.977539062 773.717773438 l 1
359.977539062 712.893554688 m 1
 87.8564453125 712.893554688 l 1
 87.8564453125 773.717773438 l 1
 359.977539062 773.717773438 l 1
 359.977539062 712.893554688 l 1
359.977539062 -81.623046875 m 1
 87.8564453125 -81.623046875 l 1
 87.8564453125 -20.798828125 l 1
 359.977539062 -20.798828125 l 1
 359.977539062 -81.623046875 l 1
0.0009765625 774.249023438 m 1
 0.0009765625 773.188476562 l 1
 583.262695312 773.188476562 l 1
 583.262695312 774.249023438 l 1
 0.0009765625 774.249023438 l 1
0.0009765625 -198.940429688 m 1
 0.0009765625 -200 l 1
 583.262695312 -200 l 1
 583.262695312 -198.940429688 l 1
 0.0009765625 -198.940429688 l 1
EndSplineSet
EndChar

StartChar: asciicircum
Encoding: 94 94 62
Width: 590
Flags: HW
LayerCount: 2
Fore
SplineSet
71.0439453125 627.405273438 m 1
 260.892578125 774.74609375 l 1
 329.1796875 774.74609375 l 1
 519.028320312 627.405273438 l 1
 484.884765625 576.212890625 l 1
 295.036132812 723.552734375 l 1
 295.036132812 723.552734375 l 1
 105.1875 576.212890625 l 1
 71.0439453125 627.405273438 l 1
0.0009765625 785.624023438 m 1
 0.0009765625 784.551757812 l 1
 590.073242188 784.551757812 l 1
 590.073242188 785.624023438 l 1
 0.0009765625 785.624023438 l 1
0.0009765625 -198.928710938 m 1
 0.0009765625 -200.000976562 l 1
 590.073242188 -200.000976562 l 1
 590.073242188 -198.928710938 l 1
 0.0009765625 -198.928710938 l 1
EndSplineSet
EndChar

StartChar: underscore
Encoding: 95 95 63
Width: 599
Flags: HW
LayerCount: 2
Fore
SplineSet
107.848632812 19.056640625 m 1
 490.831054688 19.056640625 l 1
 490.831054688 -43.375 l 1
 107.848632812 -43.375 l 1
 107.848632812 19.056640625 l 1
0.0009765625 799.999023438 m 1
 0.0009765625 798.911132812 l 1
 598.680664062 798.911132812 l 1
 598.680664062 799.999023438 l 1
 0.0009765625 799.999023438 l 1
0.0009765625 -198.911132812 m 1
 0.0009765625 -199.999023438 l 1
 598.680664062 -199.999023438 l 1
 598.680664062 -198.911132812 l 1
 0.0009765625 -198.911132812 l 1
EndSplineSet
EndChar

StartChar: grave
Encoding: 96 96 64
Width: 599
Flags: HW
LayerCount: 2
Fore
SplineSet
259.717773438 799.456054688 m 1
 338.961914062 799.456054688 l 1
 370.66015625 604.356445312 l 1
 307.264648438 604.356445312 l 1
 259.717773438 799.456054688 l 1
0.0009765625 799.999023438 m 1
 0.0009765625 798.911132812 l 1
 598.680664062 798.911132812 l 1
 598.680664062 799.999023438 l 1
 0.0009765625 799.999023438 l 1
0.0009765625 -198.911132812 m 1
 0.0009765625 -199.999023438 l 1
 598.680664062 -199.999023438 l 1
 598.680664062 -198.911132812 l 1
 0.0009765625 -198.911132812 l 1
EndSplineSet
EndChar

StartChar: a
Encoding: 97 97 65
Width: 599
Flags: HW
LayerCount: 2
Fore
SplineSet
99.9951171875 456.38671875 m 1
 154.40625 511.642578125 208.084960938 534.120117188 285.634765625 534.120117188 c 0
 407.73828125 534.120117188 490.831054688 466.744140625 490.831054688 348.771484375 c 2
 490.831054688 19.056640625 l 1
 427.434570312 19.056640625 l 1
 411.5859375 142.165039062 l 1
 411.5859375 348.771484375 l 2
 411.5859375 424.821289062 362.319335938 471.688476562 285.634765625 471.688476562 c 0
 224.357421875 471.688476562 181.990234375 453.307617188 140.125976562 408.561523438 c 1
 99.9951171875 456.38671875 l 1
451.208984375 309.3671875 m 1
 451.208984375 256.299804688 l 1
 257.638671875 256.299804688 l 2
 195.219726562 256.299804688 151.325195312 224.315429688 151.325195312 164.9921875 c 0
 151.325195312 105.668945312 195.219726562 73.6845703125 257.638671875 73.6845703125 c 0
 322.858398438 73.6845703125 367.9140625 93.7265625 411.5859375 142.165039062 c 1
 430.315429688 109.724609375 l 1
 383.173828125 41.2265625 326.159179688 11.251953125 243.006835938 11.251953125 c 0
 141.415039062 11.251953125 72.080078125 66.9755859375 72.080078125 164.9921875 c 0
 72.080078125 263.153320312 151.211914062 309.3671875 257.638671875 309.3671875 c 2
 451.208984375 309.3671875 l 1
0.0009765625 799.999023438 m 1
 0.0009765625 798.911132812 l 1
 598.680664062 798.911132812 l 1
 598.680664062 799.999023438 l 1
 0.0009765625 799.999023438 l 1
0.0009765625 -198.911132812 m 1
 0.0009765625 -199.999023438 l 1
 598.680664062 -199.999023438 l 1
 598.680664062 -198.911132812 l 1
 0.0009765625 -198.911132812 l 1
EndSplineSet
EndChar

StartChar: b
Encoding: 98 98 66
Width: 599
Flags: HW
LayerCount: 2
Fore
SplineSet
62.9755859375 709.709960938 m 1
 142.220703125 709.709960938 l 1
 142.220703125 155.624023438 l 1
 126.372070312 19.056640625 l 1
 62.9755859375 19.056640625 l 1
 62.9755859375 709.709960938 l 1
118.142578125 414.337890625 m 1
 155.756835938 487.861328125 231.384765625 534.120117188 313.971679688 534.120117188 c 0
 455.498046875 534.120117188 526.599609375 424.146484375 526.599609375 272.686523438 c 0
 526.599609375 121.2265625 455.498046875 11.251953125 313.971679688 11.251953125 c 0
 227.266601562 11.251953125 149.473632812 64.53515625 118.142578125 145.381835938 c 1
 142.220703125 174.077148438 l 1
 170.565429688 112.86328125 231.881835938 73.6845703125 299.33984375 73.6845703125 c 0
 402.331054688 73.6845703125 447.354492188 159.635742188 447.354492188 272.686523438 c 0
 447.354492188 385.737304688 402.331054688 471.688476562 299.33984375 471.688476562 c 0
 235.716796875 471.688476562 176.485351562 439.25 142.220703125 385.642578125 c 1
 118.142578125 414.337890625 l 1
0.0009765625 799.999023438 m 1
 0.0009765625 798.911132812 l 1
 598.680664062 798.911132812 l 1
 598.680664062 799.999023438 l 1
 0.0009765625 799.999023438 l 1
0.0009765625 -198.911132812 m 1
 0.0009765625 -199.999023438 l 1
 598.680664062 -199.999023438 l 1
 598.680664062 -198.911132812 l 1
 0.0009765625 -198.911132812 l 1
EndSplineSet
EndChar

StartChar: c
Encoding: 99 99 67
Width: 599
Flags: HW
LayerCount: 2
Fore
SplineSet
526.599609375 432.473632812 m 1
 486.46875 384.649414062 l 1
 438.915039062 445.676757812 385.669921875 471.688476562 308.303710938 471.688476562 c 0
 202.291015625 471.688476562 151.325195312 387.171875 151.325195312 272.686523438 c 0
 151.325195312 158.200195312 202.291015625 73.6845703125 308.303710938 73.6845703125 c 0
 377.932617188 73.6845703125 443.670898438 105.798828125 486.46875 160.723632812 c 1
 526.599609375 112.8984375 l 1
 472.404296875 48.4560546875 392.504882812 11.251953125 308.303710938 11.251953125 c 0
 157.96875 11.251953125 72.080078125 117.103515625 72.080078125 272.686523438 c 0
 72.080078125 428.268554688 157.96875 534.120117188 308.303710938 534.120117188 c 0
 401.861328125 534.120117188 466.381835938 504.077148438 526.599609375 432.473632812 c 1
0.0009765625 799.999023438 m 1
 0.0009765625 798.911132812 l 1
 598.680664062 798.911132812 l 1
 598.680664062 799.999023438 l 1
 0.0009765625 799.999023438 l 1
0.0009765625 -198.911132812 m 1
 0.0009765625 -199.999023438 l 1
 598.680664062 -199.999023438 l 1
 598.680664062 -198.911132812 l 1
 0.0009765625 -198.911132812 l 1
EndSplineSet
EndChar

StartChar: d
Encoding: 100 100 68
Width: 599
Flags: HW
LayerCount: 2
Fore
SplineSet
456.458984375 709.709960938 m 1
 535.704101562 709.709960938 l 1
 535.704101562 19.056640625 l 1
 472.307617188 19.056640625 l 1
 456.458984375 155.624023438 l 1
 456.458984375 709.709960938 l 1
480.537109375 414.337890625 m 1
 456.458984375 385.642578125 l 1
 422.194335938 439.25 362.961914062 471.688476562 299.33984375 471.688476562 c 0
 196.348632812 471.688476562 151.325195312 385.737304688 151.325195312 272.686523438 c 0
 151.325195312 159.635742188 196.348632812 73.6845703125 299.33984375 73.6845703125 c 0
 366.797851562 73.6845703125 428.114257812 112.86328125 456.458984375 174.077148438 c 1
 480.537109375 145.381835938 l 1
 449.206054688 64.53515625 371.413085938 11.251953125 284.708007812 11.251953125 c 0
 143.181640625 11.251953125 72.080078125 121.2265625 72.080078125 272.686523438 c 0
 72.080078125 424.146484375 143.181640625 534.120117188 284.708007812 534.120117188 c 0
 367.294921875 534.120117188 442.922851562 487.861328125 480.537109375 414.337890625 c 1
0.0009765625 799.999023438 m 1
 0.0009765625 798.911132812 l 1
 598.680664062 798.911132812 l 1
 598.680664062 799.999023438 l 1
 0.0009765625 799.999023438 l 1
0.0009765625 -198.911132812 m 1
 0.0009765625 -199.999023438 l 1
 598.680664062 -199.999023438 l 1
 598.680664062 -198.911132812 l 1
 0.0009765625 -198.911132812 l 1
EndSplineSet
EndChar

StartChar: e
Encoding: 101 101 69
Width: 599
Flags: HW
LayerCount: 2
Fore
SplineSet
516.693359375 256.299804688 m 2
 447.354492188 256.299804688 l 1
 447.354492188 309.3671875 l 2
 447.354492188 404.08984375 400.62890625 471.688476562 311.293945312 471.688476562 c 0
 212.649414062 471.688476562 151.325195312 408.504882812 151.325195312 309.3671875 c 2
 151.325195312 282.833984375 l 1
 151.325195312 256.299804688 l 2
 151.325195312 148.53125 208.215820312 73.6845703125 311.293945312 73.6845703125 c 0
 374.70703125 73.6845703125 435.676757812 98.1376953125 481.515625 141.955078125 c 1
 521.646484375 94.1298828125 l 1
 464.549804688 40.8701171875 389.375 11.251953125 311.293945312 11.251953125 c 0
 157.5 11.251953125 72.080078125 122.328125 72.080078125 282.833984375 c 0
 72.080078125 434.657226562 161.998046875 534.120117188 311.293945312 534.120117188 c 0
 451.3203125 534.120117188 526.599609375 430.279296875 526.599609375 282.833984375 c 0
 526.599609375 272.001953125 523.791992188 264.481445312 516.693359375 256.299804688 c 2
111.703125 256.299804688 m 1
 111.703125 309.3671875 l 1
 526.599609375 309.3671875 l 1
 516.693359375 256.299804688 l 1
 111.703125 256.299804688 l 1
0.0009765625 799.999023438 m 1
 0.0009765625 798.911132812 l 1
 598.680664062 798.911132812 l 1
 598.680664062 799.999023438 l 1
 0.0009765625 799.999023438 l 1
0.0009765625 -198.911132812 m 1
 0.0009765625 -199.999023438 l 1
 598.680664062 -199.999023438 l 1
 598.680664062 -198.911132812 l 1
 0.0009765625 -198.911132812 l 1
EndSplineSet
EndChar

StartChar: f
Encoding: 102 102 70
Width: 599
Flags: HW
LayerCount: 2
Fore
SplineSet
235.818359375 19.056640625 m 1
 235.818359375 599.482421875 l 2
 235.818359375 689.395507812 307.041015625 733.122070312 403.919921875 733.122070312 c 2
 526.599609375 733.122070312 l 1
 526.599609375 670.690429688 l 1
 403.919921875 670.690429688 l 2
 357.748046875 670.690429688 315.0625 642.435546875 315.0625 599.482421875 c 2
 315.0625 19.056640625 l 1
 235.818359375 19.056640625 l 1
107.848632812 526.315429688 m 1
 526.599609375 526.315429688 l 1
 526.599609375 463.883789062 l 1
 107.848632812 463.883789062 l 1
 107.848632812 526.315429688 l 1
0.0009765625 799.999023438 m 1
 0.0009765625 798.911132812 l 1
 598.680664062 798.911132812 l 1
 598.680664062 799.999023438 l 1
 0.0009765625 799.999023438 l 1
0.0009765625 -198.911132812 m 1
 0.0009765625 -199.999023438 l 1
 598.680664062 -199.999023438 l 1
 598.680664062 -198.911132812 l 1
 0.0009765625 -198.911132812 l 1
EndSplineSet
EndChar

StartChar: g
Encoding: 103 103 71
Width: 599
Flags: HW
LayerCount: 2
Fore
SplineSet
254.517578125 534.120117188 m 1
 373.000976562 534.120117188 458.478515625 477.428710938 458.478515625 366.33203125 c 0
 458.478515625 255.235351562 373.000976562 198.543945312 254.517578125 198.543945312 c 0
 136.03515625 198.543945312 50.556640625 255.235351562 50.556640625 366.33203125 c 0
 50.556640625 477.428710938 136.03515625 534.120117188 254.517578125 534.120117188 c 1
 254.517578125 471.688476562 l 1
 181.598632812 471.688476562 129.801757812 435.271484375 129.801757812 366.33203125 c 0
 129.801757812 297.392578125 181.598632812 260.975585938 254.517578125 260.975585938 c 0
 327.436523438 260.975585938 379.234375 297.392578125 379.234375 366.33203125 c 0
 379.234375 435.271484375 327.436523438 471.688476562 254.517578125 471.688476562 c 1
 254.517578125 534.120117188 l 1
336.6875 463.883789062 m 1
 336.6875 526.315429688 l 1
 545.84765625 526.315429688 l 1
 545.84765625 463.883789062 l 1
 336.6875 463.883789062 l 1
254.517578125 229.759765625 m 1
 254.517578125 198.543945312 l 1
 188.731445312 198.543945312 129.801757812 196.491210938 129.801757812 140.015625 c 0
 129.801757812 106.971679688 158.39453125 81.48828125 192.159179688 81.48828125 c 2
 379.234375 81.48828125 l 2
 457.407226562 81.48828125 536.604492188 49.6025390625 538.373046875 -19.9658203125 c 0
 541.065429688 -125.924804688 378.978515625 -168.239257812 254.517578125 -168.239257812 c 0
 141.7734375 -168.239257812 50.556640625 -136.538085938 50.556640625 -37.1328125 c 0
 50.556640625 27.453125 128.8203125 49.8564453125 203.370117188 49.8564453125 c 1
 192.159179688 19.056640625 l 1
 162.165039062 8.1396484375 129.801757812 -6.841796875 129.801757812 -37.1328125 c 0
 129.801757812 -89.4150390625 193.9765625 -105.807617188 254.517578125 -105.807617188 c 0
 366.185546875 -105.807617188 489.173828125 -100.77734375 459.127929688 -19.9658203125 c 0
 447.965820312 10.056640625 412.631835938 19.056640625 379.234375 19.056640625 c 2
 192.159179688 19.056640625 l 2
 111.865234375 19.056640625 39.7099609375 70.1552734375 50.556640625 140.015625 c 0
 63.0712890625 220.616210938 164.255859375 229.759765625 254.517578125 229.759765625 c 1
0.0009765625 799.999023438 m 1
 0.0009765625 798.911132812 l 1
 598.680664062 798.911132812 l 1
 598.680664062 799.999023438 l 1
 0.0009765625 799.999023438 l 1
0.0009765625 -198.911132812 m 1
 0.0009765625 -199.999023438 l 1
 598.680664062 -199.999023438 l 1
 598.680664062 -198.911132812 l 1
 0.0009765625 -198.911132812 l 1
EndSplineSet
EndChar

StartChar: h
Encoding: 104 104 72
Width: 599
Flags: HW
LayerCount: 2
Fore
SplineSet
107.848632812 701.90625 m 1
 187.09375 701.90625 l 1
 187.09375 19.056640625 l 1
 107.848632812 19.056640625 l 1
 107.848632812 701.90625 l 1
166.024414062 381.489257812 m 1
 191.954101562 481.35546875 260.168945312 534.120117188 363.346679688 534.120117188 c 0
 471.840820312 534.120117188 535.704101562 459.98046875 535.704101562 348.771484375 c 2
 535.704101562 19.056640625 l 1
 456.458984375 19.056640625 l 1
 456.458984375 348.771484375 l 2
 456.458984375 421.322265625 418.122070312 471.688476562 348.71484375 471.688476562 c 0
 267.64453125 471.688476562 213.471679688 433.0390625 187.09375 356.380859375 c 1
 166.024414062 381.489257812 l 1
0.0009765625 799.999023438 m 1
 0.0009765625 798.911132812 l 1
 598.680664062 798.911132812 l 1
 598.680664062 799.999023438 l 1
 0.0009765625 799.999023438 l 1
0.0009765625 -198.911132812 m 1
 0.0009765625 -199.999023438 l 1
 598.680664062 -199.999023438 l 1
 598.680664062 -198.911132812 l 1
 0.0009765625 -198.911132812 l 1
EndSplineSet
EndChar

StartChar: i
Encoding: 105 105 73
Width: 599
Flags: HW
LayerCount: 2
Fore
SplineSet
299.33984375 81.48828125 m 1
 490.831054688 81.48828125 l 1
 490.831054688 19.056640625 l 1
 299.33984375 19.056640625 l 1
 299.33984375 81.48828125 l 1
72.080078125 463.883789062 m 1
 72.080078125 526.315429688 l 1
 299.33984375 526.315429688 l 1
 299.33984375 463.883789062 l 1
 72.080078125 463.883789062 l 1
259.717773438 526.315429688 m 1
 338.961914062 526.315429688 l 1
 338.961914062 19.056640625 l 1
 259.717773438 19.056640625 l 1
 259.717773438 526.315429688 l 1
348.868164062 672.640625 m 0
 348.868164062 659.504882812 343.6484375 646.908203125 334.360351562 637.620117188 c 0
 325.072265625 628.33203125 312.475585938 623.11328125 299.33984375 623.11328125 c 0
 286.204101562 623.11328125 273.607421875 628.33203125 264.319335938 637.620117188 c 0
 255.03125 646.908203125 249.811523438 659.504882812 249.811523438 672.640625 c 0
 249.811523438 685.77734375 255.03125 698.374023438 264.319335938 707.661132812 c 0
 273.607421875 716.94921875 286.204101562 722.168945312 299.33984375 722.168945312 c 0
 312.475585938 722.168945312 325.072265625 716.94921875 334.360351562 707.661132812 c 0
 343.6484375 698.374023438 348.868164062 685.77734375 348.868164062 672.640625 c 0
0.0009765625 799.999023438 m 1
 0.0009765625 798.911132812 l 1
 598.680664062 798.911132812 l 1
 598.680664062 799.999023438 l 1
 0.0009765625 799.999023438 l 1
0.0009765625 -198.911132812 m 1
 0.0009765625 -199.999023438 l 1
 598.680664062 -199.999023438 l 1
 598.680664062 -198.911132812 l 1
 0.0009765625 -198.911132812 l 1
EndSplineSet
EndChar

StartChar: j
Encoding: 106 106 74
Width: 599
Flags: HW
LayerCount: 2
Fore
SplineSet
199.741210938 526.315429688 m 1
 448.737304688 526.315429688 l 1
 448.737304688 463.883789062 l 1
 199.741210938 463.883789062 l 1
 199.741210938 526.315429688 l 1
409.115234375 526.315429688 m 1
 488.360351562 526.315429688 l 1
 488.360351562 9.3017578125 l 2
 488.360351562 -98.955078125 421.811523438 -168.239257812 314.280273438 -168.239257812 c 2
 73.7060546875 -168.239257812 l 1
 73.7060546875 -105.807617188 l 1
 314.280273438 -105.807617188 l 2
 370.755859375 -105.807617188 409.115234375 -50.900390625 409.115234375 9.3017578125 c 2
 409.115234375 526.315429688 l 1
498.265625 672.640625 m 0
 498.265625 659.504882812 493.046875 646.908203125 483.758789062 637.620117188 c 0
 474.470703125 628.33203125 461.874023438 623.11328125 448.737304688 623.11328125 c 0
 435.6015625 623.11328125 423.004882812 628.33203125 413.716796875 637.620117188 c 0
 404.428710938 646.908203125 399.209960938 659.504882812 399.209960938 672.640625 c 0
 399.209960938 685.77734375 404.428710938 698.374023438 413.716796875 707.661132812 c 0
 423.004882812 716.94921875 435.6015625 722.168945312 448.737304688 722.168945312 c 0
 461.874023438 722.168945312 474.470703125 716.94921875 483.758789062 707.661132812 c 0
 493.046875 698.374023438 498.265625 685.77734375 498.265625 672.640625 c 0
0.0009765625 799.999023438 m 1
 0.0009765625 798.911132812 l 1
 598.680664062 798.911132812 l 1
 598.680664062 799.999023438 l 1
 0.0009765625 799.999023438 l 1
0.0009765625 -198.911132812 m 1
 0.0009765625 -199.999023438 l 1
 598.680664062 -199.999023438 l 1
 598.680664062 -198.911132812 l 1
 0.0009765625 -198.911132812 l 1
EndSplineSet
EndChar

StartChar: k
Encoding: 107 107 75
Width: 599
Flags: HW
LayerCount: 2
Fore
SplineSet
107.848632812 701.90625 m 1
 187.09375 701.90625 l 1
 187.09375 19.056640625 l 1
 107.848632812 19.056640625 l 1
 107.848632812 701.90625 l 1
434.948242188 526.315429688 m 1
 544.483398438 526.315429688 l 1
 266.337890625 272.686523438 l 1
 544.483398438 19.056640625 l 1
 434.948242188 19.056640625 l 1
 187.09375 272.686523438 l 1
 434.948242188 526.315429688 l 1
0.0009765625 799.999023438 m 1
 0.0009765625 798.911132812 l 1
 598.680664062 798.911132812 l 1
 598.680664062 799.999023438 l 1
 0.0009765625 799.999023438 l 1
0.0009765625 -198.911132812 m 1
 0.0009765625 -199.999023438 l 1
 598.680664062 -199.999023438 l 1
 598.680664062 -198.911132812 l 1
 0.0009765625 -198.911132812 l 1
EndSplineSet
EndChar

StartChar: l
Encoding: 108 108 76
Width: 599
Flags: HW
LayerCount: 2
Fore
SplineSet
211.909179688 709.709960938 m 1
 291.153320312 709.709960938 l 1
 291.153320312 19.056640625 l 1
 211.909179688 19.056640625 l 1
 211.909179688 709.709960938 l 1
211.909179688 81.48828125 m 1
 490.831054688 81.48828125 l 1
 490.831054688 19.056640625 l 1
 211.909179688 19.056640625 l 1
 211.909179688 81.48828125 l 1
211.909179688 709.709960938 m 1
 211.909179688 647.278320312 l 1
 30.42578125 647.278320312 l 1
 30.42578125 709.709960938 l 1
 211.909179688 709.709960938 l 1
0.0009765625 799.999023438 m 1
 0.0009765625 798.911132812 l 1
 598.680664062 798.911132812 l 1
 598.680664062 799.999023438 l 1
 0.0009765625 799.999023438 l 1
0.0009765625 -198.911132812 m 1
 0.0009765625 -199.999023438 l 1
 598.680664062 -199.999023438 l 1
 598.680664062 -198.911132812 l 1
 0.0009765625 -198.911132812 l 1
EndSplineSet
EndChar

StartChar: m
Encoding: 109 109 77
Width: 599
Flags: HW
LayerCount: 2
Fore
SplineSet
72.080078125 526.315429688 m 1
 142.918945312 526.315429688 l 1
 142.918945312 19.056640625 l 1
 72.080078125 19.056640625 l 1
 72.080078125 526.315429688 l 1
121.849609375 429.971679688 m 1
 157.799804688 460.13671875 180.048828125 534.120117188 230.15234375 534.120117188 c 0
 290.987304688 534.120117188 326.892578125 489.356445312 313.690429688 429.971679688 c 1
 315.73828125 482.321289062 369.602539062 534.120117188 421.993164062 534.120117188 c 0
 489.990234375 534.120117188 526.599609375 483.751953125 526.599609375 412.1796875 c 2
 526.599609375 19.056640625 l 1
 455.760742188 19.056640625 l 1
 455.760742188 397.546875 l 2
 455.760742188 434.530273438 440.0625 471.688476562 407.361328125 471.688476562 c 0
 368.272460938 471.688476562 334.758789062 442.8671875 334.758789062 404.86328125 c 1
 334.758789062 412.1796875 l 1
 334.758789062 19.056640625 l 1
 263.920898438 19.056640625 l 1
 263.920898438 397.546875 l 2
 263.920898438 434.530273438 248.22265625 471.688476562 215.520507812 471.688476562 c 0
 176.431640625 471.688476562 142.918945312 442.8671875 142.918945312 404.86328125 c 1
 121.849609375 429.971679688 l 1
0.0009765625 799.999023438 m 1
 0.0009765625 798.911132812 l 1
 598.680664062 798.911132812 l 1
 598.680664062 799.999023438 l 1
 0.0009765625 799.999023438 l 1
0.0009765625 -198.911132812 m 1
 0.0009765625 -199.999023438 l 1
 598.680664062 -199.999023438 l 1
 598.680664062 -198.911132812 l 1
 0.0009765625 -198.911132812 l 1
EndSplineSet
EndChar

StartChar: n
Encoding: 110 110 78
Width: 599
Flags: HW
LayerCount: 2
Fore
SplineSet
107.848632812 526.315429688 m 1
 187.09375 526.315429688 l 1
 187.09375 19.056640625 l 1
 107.848632812 19.056640625 l 1
 107.848632812 526.315429688 l 1
166.024414062 399.489257812 m 1
 197.831054688 480.693359375 276.135742188 534.120117188 363.346679688 534.120117188 c 0
 471.840820312 534.120117188 535.704101562 459.98046875 535.704101562 348.771484375 c 2
 535.704101562 19.056640625 l 1
 456.458984375 19.056640625 l 1
 456.458984375 348.771484375 l 2
 456.458984375 421.322265625 418.122070312 471.688476562 348.71484375 471.688476562 c 0
 280.977539062 471.688476562 218.788085938 434.24609375 187.09375 374.380859375 c 1
 166.024414062 399.489257812 l 1
0.0009765625 799.999023438 m 1
 0.0009765625 798.911132812 l 1
 598.680664062 798.911132812 l 1
 598.680664062 799.999023438 l 1
 0.0009765625 799.999023438 l 1
0.0009765625 -198.911132812 m 1
 0.0009765625 -199.999023438 l 1
 598.680664062 -199.999023438 l 1
 598.680664062 -198.911132812 l 1
 0.0009765625 -198.911132812 l 1
EndSplineSet
EndChar

StartChar: o
Encoding: 111 111 79
Width: 599
Flags: HW
LayerCount: 2
Fore
SplineSet
299.33984375 534.120117188 m 1
 445.337890625 534.120117188 526.599609375 428.865234375 526.599609375 276.587890625 c 0
 526.599609375 120.913085938 447.1640625 11.251953125 299.33984375 11.251953125 c 0
 151.515625 11.251953125 72.080078125 120.913085938 72.080078125 276.587890625 c 0
 72.080078125 428.865234375 153.341796875 534.120117188 299.33984375 534.120117188 c 1
 299.33984375 471.688476562 l 1
 197.41015625 471.688476562 151.325195312 387.880859375 151.325195312 276.587890625 c 0
 151.325195312 161.774414062 195.265625 73.6845703125 299.33984375 73.6845703125 c 0
 403.4140625 73.6845703125 447.354492188 161.774414062 447.354492188 276.587890625 c 0
 447.354492188 387.880859375 401.26953125 471.688476562 299.33984375 471.688476562 c 1
 299.33984375 534.120117188 l 1
0.0009765625 799.999023438 m 1
 0.0009765625 798.911132812 l 1
 598.680664062 798.911132812 l 1
 598.680664062 799.999023438 l 1
 0.0009765625 799.999023438 l 1
0.0009765625 -198.911132812 m 1
 0.0009765625 -199.999023438 l 1
 598.680664062 -199.999023438 l 1
 598.680664062 -198.911132812 l 1
 0.0009765625 -198.911132812 l 1
EndSplineSet
EndChar

StartChar: r
Encoding: 114 114 80
Width: 599
Flags: HW
LayerCount: 2
Fore
SplineSet
107.848632812 526.315429688 m 1
 269.458007812 526.315429688 l 1
 269.458007812 463.883789062 l 1
 107.848632812 463.883789062 l 1
 107.848632812 526.315429688 l 1
107.848632812 19.056640625 m 1
 107.848632812 81.48828125 l 1
 526.599609375 81.48828125 l 1
 526.599609375 19.056640625 l 1
 107.848632812 19.056640625 l 1
229.8359375 526.315429688 m 1
 309.081054688 526.315429688 l 1
 309.081054688 19.056640625 l 1
 229.8359375 19.056640625 l 1
 229.8359375 526.315429688 l 1
276.9765625 399.962890625 m 1
 360.26171875 469.848632812 417.78125 534.120117188 526.599609375 534.120117188 c 1
 526.599609375 471.688476562 l 1
 433.201171875 471.688476562 380.634765625 421.745117188 309.081054688 361.703125 c 1
 276.9765625 399.962890625 l 1
0.0009765625 799.999023438 m 1
 0.0009765625 798.911132812 l 1
 598.680664062 798.911132812 l 1
 598.680664062 799.999023438 l 1
 0.0009765625 799.999023438 l 1
0.0009765625 -198.911132812 m 1
 0.0009765625 -199.999023438 l 1
 598.680664062 -199.999023438 l 1
 598.680664062 -198.911132812 l 1
 0.0009765625 -198.911132812 l 1
EndSplineSet
EndChar

StartChar: s
Encoding: 115 115 81
Width: 599
Flags: HW
LayerCount: 2
Fore
SplineSet
311.293945312 534.120117188 m 0
 391.545898438 534.120117188 469.4609375 507.103515625 532.486328125 457.422851562 c 1
 492.35546875 409.59765625 l 1
 440.579101562 449.840820312 376.87109375 471.688476562 311.293945312 471.688476562 c 0
 234.923828125 471.688476562 151.325195312 458.96875 151.325195312 393.400390625 c 0
 151.325195312 338.92578125 201.782226562 325.487304688 260.619140625 315.11328125 c 2
 348.901367188 299.546875 l 2
 447.809570312 282.106445312 526.599609375 248.55859375 526.599609375 155.874023438 c 0
 526.599609375 41.6171875 418.278320312 11.251953125 287.385742188 11.251953125 c 0
 201.268554688 11.251953125 117.817382812 41.1162109375 51.2529296875 95.75390625 c 1
 91.3837890625 143.579101562 l 1
 146.703125 98.3759765625 215.946289062 73.6845703125 287.385742188 73.6845703125 c 0
 364.26953125 73.6845703125 447.354492188 89.7724609375 447.354492188 155.874023438 c 0
 447.354492188 211.267578125 397.6640625 227.553710938 338.060546875 238.063476562 c 2
 249.778320312 253.629882812 l 2
 151.653320312 270.931640625 72.080078125 301.770507812 72.080078125 393.400390625 c 0
 72.080078125 506.741210938 180.967773438 534.120117188 311.293945312 534.120117188 c 0
0.0009765625 799.999023438 m 1
 0.0009765625 798.911132812 l 1
 598.680664062 798.911132812 l 1
 598.680664062 799.999023438 l 1
 0.0009765625 799.999023438 l 1
0.0009765625 -198.911132812 m 1
 0.0009765625 -199.999023438 l 1
 598.680664062 -199.999023438 l 1
 598.680664062 -198.911132812 l 1
 0.0009765625 -198.911132812 l 1
EndSplineSet
EndChar

StartChar: t
Encoding: 116 116 82
Width: 599
Flags: HW
LayerCount: 2
Fore
SplineSet
72.080078125 463.883789062 m 1
 72.080078125 526.315429688 l 1
 526.599609375 526.315429688 l 1
 526.599609375 463.883789062 l 1
 72.080078125 463.883789062 l 1
235.818359375 651.176757812 m 1
 315.0625 701.90625 l 1
 315.0625 141.969726562 l 2
 315.0625 98.2109375 346.416992188 73.6845703125 391.963867188 73.6845703125 c 2
 526.599609375 73.6845703125 l 1
 526.599609375 11.251953125 l 1
 476.734375 11.251953125 441.829101562 11.251953125 391.963867188 11.251953125 c 0
 300.873046875 11.251953125 235.818359375 56.09375 235.818359375 141.969726562 c 2
 235.818359375 651.176757812 l 1
0.0009765625 799.999023438 m 1
 0.0009765625 798.911132812 l 1
 598.680664062 798.911132812 l 1
 598.680664062 799.999023438 l 1
 0.0009765625 799.999023438 l 1
0.0009765625 -198.911132812 m 1
 0.0009765625 -199.999023438 l 1
 598.680664062 -199.999023438 l 1
 598.680664062 -198.911132812 l 1
 0.0009765625 -198.911132812 l 1
EndSplineSet
EndChar

StartChar: u
Encoding: 117 117 83
Width: 599
Flags: HW
LayerCount: 2
Fore
SplineSet
411.5859375 526.315429688 m 1
 490.831054688 526.315429688 l 1
 490.831054688 19.056640625 l 1
 411.5859375 19.056640625 l 1
 411.5859375 526.315429688 l 1
62.9755859375 526.315429688 m 1
 142.220703125 526.315429688 l 1
 142.220703125 196.600585938 l 2
 142.220703125 124.049804688 180.557617188 73.6845703125 249.96484375 73.6845703125 c 0
 321.385742188 73.6845703125 385.517578125 117.42578125 411.5859375 183.91796875 c 1
 435.665039062 155.22265625 l 1
 406.725585938 69.1982421875 326.095703125 11.251953125 235.333007812 11.251953125 c 0
 126.838867188 11.251953125 62.9755859375 85.392578125 62.9755859375 196.600585938 c 2
 62.9755859375 526.315429688 l 1
0.0009765625 799.999023438 m 1
 0.0009765625 798.911132812 l 1
 598.680664062 798.911132812 l 1
 598.680664062 799.999023438 l 1
 0.0009765625 799.999023438 l 1
0.0009765625 -198.911132812 m 1
 0.0009765625 -199.999023438 l 1
 598.680664062 -199.999023438 l 1
 598.680664062 -198.911132812 l 1
 0.0009765625 -198.911132812 l 1
EndSplineSet
EndChar

StartChar: v
Encoding: 118 118 84
Width: 599
Flags: HW
LayerCount: 2
Fore
SplineSet
54.1962890625 526.315429688 m 1
 133.44140625 526.315429688 l 1
 323.11328125 19.056640625 l 1
 259.717773438 19.056640625 l 1
 54.1962890625 526.315429688 l 1
465.23828125 526.315429688 m 1
 544.483398438 526.315429688 l 1
 338.961914062 19.056640625 l 1
 275.56640625 19.056640625 l 1
 465.23828125 526.315429688 l 1
0.0009765625 799.999023438 m 1
 0.0009765625 798.911132812 l 1
 598.680664062 798.911132812 l 1
 598.680664062 799.999023438 l 1
 0.0009765625 799.999023438 l 1
0.0009765625 -198.911132812 m 1
 0.0009765625 -199.999023438 l 1
 598.680664062 -199.999023438 l 1
 598.680664062 -198.911132812 l 1
 0.0009765625 -198.911132812 l 1
EndSplineSet
EndChar

StartChar: w
Encoding: 119 119 85
Width: 599
Flags: HW
LayerCount: 2
Fore
SplineSet
54.1962890625 526.315429688 m 1
 125.034179688 526.315429688 l 1
 215.728515625 19.056640625 l 1
 159.05859375 19.056640625 l 1
 54.1962890625 526.315429688 l 1
173.2265625 19.056640625 m 1
 263.920898438 428.770507812 l 1
 320.590820312 428.770507812 l 1
 229.896484375 19.056640625 l 1
 173.2265625 19.056640625 l 1
278.088867188 428.770507812 m 1
 334.758789062 428.770507812 l 1
 425.453125 19.056640625 l 1
 368.783203125 19.056640625 l 1
 278.088867188 428.770507812 l 1
382.951171875 19.056640625 m 1
 473.64453125 526.315429688 l 1
 544.483398438 526.315429688 l 1
 439.62109375 19.056640625 l 1
 382.951171875 19.056640625 l 1
0.0009765625 799.999023438 m 1
 0.0009765625 798.911132812 l 1
 598.680664062 798.911132812 l 1
 598.680664062 799.999023438 l 1
 0.0009765625 799.999023438 l 1
0.0009765625 -198.911132812 m 1
 0.0009765625 -199.999023438 l 1
 598.680664062 -199.999023438 l 1
 598.680664062 -198.911132812 l 1
 0.0009765625 -198.911132812 l 1
EndSplineSet
EndChar

StartChar: x
Encoding: 120 120 86
Width: 599
Flags: HW
LayerCount: 2
Fore
SplineSet
35.173828125 526.315429688 m 1
 120.592773438 526.315429688 l 1
 338.961914062 272.686523438 l 1
 563.505859375 19.056640625 l 1
 478.086914062 19.056640625 l 1
 259.717773438 272.686523438 l 1
 35.173828125 526.315429688 l 1
478.086914062 526.315429688 m 1
 563.505859375 526.315429688 l 1
 338.961914062 272.686523438 l 1
 120.592773438 19.056640625 l 1
 35.173828125 19.056640625 l 1
 259.717773438 272.686523438 l 1
 478.086914062 526.315429688 l 1
0.0009765625 799.999023438 m 1
 0.0009765625 798.911132812 l 1
 598.680664062 798.911132812 l 1
 598.680664062 799.999023438 l 1
 0.0009765625 799.999023438 l 1
0.0009765625 -198.911132812 m 1
 0.0009765625 -199.999023438 l 1
 598.680664062 -199.999023438 l 1
 598.680664062 -198.911132812 l 1
 0.0009765625 -198.911132812 l 1
EndSplineSet
EndChar

StartChar: y
Encoding: 121 121 87
Width: 599
Flags: HW
LayerCount: 2
Fore
SplineSet
35.173828125 526.315429688 m 1
 114.41796875 526.315429688 l 1
 254.7578125 209.278320312 l 1
 323.11328125 19.056640625 l 1
 259.717773438 19.056640625 l 1
 175.513671875 209.278320312 l 1
 35.173828125 526.315429688 l 1
484.26171875 526.315429688 m 1
 563.505859375 526.315429688 l 1
 423.166015625 209.278320312 l 1
 338.961914062 19.056640625 l 1
 275.56640625 19.056640625 l 1
 343.921875 209.278320312 l 1
 484.26171875 526.315429688 l 1
259.717773438 19.056640625 m 1
 338.961914062 19.056640625 l 1
 256.053710938 -168.240234375 l 1
 176.80859375 -168.240234375 l 1
 259.717773438 19.056640625 l 1
0.0009765625 799.999023438 m 1
 0.0009765625 798.911132812 l 1
 598.680664062 798.911132812 l 1
 598.680664062 799.999023438 l 1
 0.0009765625 799.999023438 l 1
0.0009765625 -198.911132812 m 1
 0.0009765625 -199.999023438 l 1
 598.680664062 -199.999023438 l 1
 598.680664062 -198.911132812 l 1
 0.0009765625 -198.911132812 l 1
EndSplineSet
EndChar

StartChar: z
Encoding: 122 122 88
Width: 599
Flags: HW
LayerCount: 2
Fore
SplineSet
107.848632812 463.883789062 m 1
 107.848632812 526.315429688 l 1
 490.831054688 526.315429688 l 1
 490.831054688 463.883789062 l 1
 107.848632812 463.883789062 l 1
107.848632812 19.056640625 m 1
 107.848632812 81.48828125 l 1
 490.831054688 81.48828125 l 1
 490.831054688 19.056640625 l 1
 107.848632812 19.056640625 l 1
411.5859375 463.883789062 m 1
 490.831054688 463.883789062 l 1
 187.09375 81.48828125 l 1
 107.848632812 81.48828125 l 1
 411.5859375 463.883789062 l 1
0.0009765625 799.999023438 m 1
 0.0009765625 798.911132812 l 1
 598.680664062 798.911132812 l 1
 598.680664062 799.999023438 l 1
 0.0009765625 799.999023438 l 1
0.0009765625 -198.911132812 m 1
 0.0009765625 -199.999023438 l 1
 598.680664062 -199.999023438 l 1
 598.680664062 -198.911132812 l 1
 0.0009765625 -198.911132812 l 1
EndSplineSet
EndChar

StartChar: braceleft
Encoding: 123 123 89
Width: 583
Flags: HW
LayerCount: 2
Fore
SplineSet
388.66796875 773.717773438 m 2
 513.038085938 773.717773438 l 1
 513.038085938 712.893554688 l 1
 388.66796875 712.893554688 l 2
 350.759765625 712.893554688 326.892578125 689.02734375 326.892578125 651.118164062 c 2
 326.892578125 438.234375 l 2
 326.892578125 363.91796875 268 327.80078125 187.9140625 327.80078125 c 1
 187.9140625 376.459960938 l 1
 225.823242188 376.459960938 249.689453125 400.326171875 249.689453125 438.234375 c 2
 249.689453125 651.118164062 l 2
 249.689453125 729.891601562 306.498046875 773.717773438 388.66796875 773.717773438 c 2
70.224609375 376.459960938 m 1
 187.9140625 376.459960938 l 1
 187.9140625 315.635742188 l 1
 70.224609375 315.635742188 l 1
 70.224609375 376.459960938 l 1
187.9140625 364.293945312 m 1
 268 364.293945312 326.892578125 328.177734375 326.892578125 253.860351562 c 2
 326.892578125 40.9765625 l 2
 326.892578125 3.068359375 350.759765625 -20.798828125 388.66796875 -20.798828125 c 2
 513.038085938 -20.798828125 l 1
 513.038085938 -81.623046875 l 1
 388.66796875 -81.623046875 l 2
 306.498046875 -81.623046875 249.689453125 -37.7958984375 249.689453125 40.9765625 c 2
 249.689453125 253.860351562 l 2
 249.689453125 291.768554688 225.823242188 315.635742188 187.9140625 315.635742188 c 1
 187.9140625 364.293945312 l 1
0.0009765625 774.249023438 m 1
 0.0009765625 773.188476562 l 1
 583.262695312 773.188476562 l 1
 583.262695312 774.249023438 l 1
 0.0009765625 774.249023438 l 1
0.0009765625 -198.940429688 m 1
 0.0009765625 -200 l 1
 583.262695312 -200 l 1
 583.262695312 -198.940429688 l 1
 0.0009765625 -198.940429688 l 1
EndSplineSet
EndChar

StartChar: bar
Encoding: 124 124 90
Width: 599
Flags: HW
LayerCount: 2
Fore
SplineSet
259.717773438 799.456054688 m 1
 338.961914062 799.456054688 l 1
 338.961914062 -78.4931640625 l 1
 259.717773438 -78.4931640625 l 1
 259.717773438 799.456054688 l 1
0.0009765625 799.999023438 m 1
 0.0009765625 798.911132812 l 1
 598.680664062 798.911132812 l 1
 598.680664062 799.999023438 l 1
 0.0009765625 799.999023438 l 1
0.0009765625 -198.911132812 m 1
 0.0009765625 -199.999023438 l 1
 598.680664062 -199.999023438 l 1
 598.680664062 -198.911132812 l 1
 0.0009765625 -198.911132812 l 1
EndSplineSet
EndChar

StartChar: braceright
Encoding: 125 125 91
Width: 584
Flags: HW
LayerCount: 2
Fore
SplineSet
194.8515625 714.099609375 m 2
 70.3173828125 714.099609375 l 1
 70.3173828125 775.004882812 l 1
 194.8515625 775.004882812 l 2
 277.129882812 775.004882812 334.013671875 731.120117188 334.013671875 652.243164062 c 2
 334.013671875 439.078125 l 2
 334.013671875 401.119140625 357.912109375 377.221679688 395.870117188 377.221679688 c 1
 395.870117188 328.498046875 l 1
 315.678710938 328.498046875 256.708007812 364.663085938 256.708007812 439.078125 c 2
 256.708007812 652.243164062 l 2
 256.708007812 690.202148438 232.809570312 714.099609375 194.8515625 714.099609375 c 2
395.870117188 377.221679688 m 1
 513.715820312 377.221679688 l 1
 513.715820312 316.317382812 l 1
 395.870117188 316.317382812 l 1
 395.870117188 377.221679688 l 1
395.870117188 316.317382812 m 1
 357.912109375 316.317382812 334.013671875 292.418945312 334.013671875 254.4609375 c 2
 334.013671875 41.294921875 l 2
 334.013671875 -37.58203125 277.129882812 -81.4658203125 194.8515625 -81.4658203125 c 2
 70.3173828125 -81.4658203125 l 1
 70.3173828125 -20.5615234375 l 1
 194.8515625 -20.5615234375 l 2
 232.809570312 -20.5615234375 256.708007812 3.3359375 256.708007812 41.294921875 c 2
 256.708007812 254.4609375 l 2
 256.708007812 328.875976562 315.678710938 365.040039062 395.870117188 365.040039062 c 1
 395.870117188 316.317382812 l 1
0.0009765625 775.536132812 m 1
 0.0009765625 774.474609375 l 1
 584.034179688 774.474609375 l 1
 584.034179688 775.536132812 l 1
 0.0009765625 775.536132812 l 1
0.0009765625 -198.939453125 m 1
 0.0009765625 -200 l 1
 584.034179688 -200 l 1
 584.034179688 -198.939453125 l 1
 0.0009765625 -198.939453125 l 1
EndSplineSet
EndChar

StartChar: asciitilde
Encoding: 126 126 92
Width: 599
Flags: HW
LayerCount: 2
Fore
SplineSet
72.080078125 272.686523438 m 1
 78.646484375 330.478515625 127.545898438 374.13671875 185.709960938 374.13671875 c 0
 244.83984375 374.13671875 285.150390625 350.924804688 314.833984375 299.786132812 c 1
 283.845703125 245.586914062 l 1
 265.849609375 289.994140625 233.625976562 311.704101562 185.709960938 311.704101562 c 0
 135.78125 311.704101562 97.0849609375 268.055664062 103.067382812 218.487304688 c 1
 72.080078125 272.686523438 l 1
526.599609375 272.686523438 m 1
 520.033203125 214.893554688 471.133789062 171.235351562 412.969726562 171.235351562 c 0
 353.83984375 171.235351562 313.529296875 194.447265625 283.845703125 245.586914062 c 1
 314.833984375 299.786132812 l 1
 332.830078125 255.377929688 365.053710938 233.66796875 412.969726562 233.66796875 c 0
 462.8984375 233.66796875 501.594726562 277.31640625 495.612304688 326.885742188 c 1
 526.599609375 272.686523438 l 1
0.0009765625 799.999023438 m 1
 0.0009765625 798.911132812 l 1
 598.680664062 798.911132812 l 1
 598.680664062 799.999023438 l 1
 0.0009765625 799.999023438 l 1
0.0009765625 -198.911132812 m 1
 0.0009765625 -199.999023438 l 1
 598.680664062 -199.999023438 l 1
 598.680664062 -198.911132812 l 1
 0.0009765625 -198.911132812 l 1
EndSplineSet
EndChar
